<svg version="1.1" xmlns="http://www.w3.org/2000/svg" viewBox="0 0 2269.7419407232937 2472.1550017806703" width="6809.225822169881" height="7416.465005342011">
  <!-- svg-source:excalidraw -->
  
  <defs>
    <style class="style-fonts">
      @font-face {
        font-family: "Virgil";
        src: url("https://excalidraw.com/Virgil.woff2");
      }
      @font-face {
        font-family: "Cascadia";
        src: url("https://excalidraw.com/Cascadia.woff2");
      }
    </style>
  </defs>
  <g stroke-linecap="round" transform="translate(318.3569284925712 364.8649803419121) rotate(0 124.5 58)"><path d="M29 0 M29 0 C100.78 -0.63, 168.64 0.94, 220 0 M29 0 C79.53 0.82, 131.99 0.57, 220 0 M220 0 C239.29 -1.79, 247.51 10.05, 249 29 M220 0 C240.59 -0.4, 247.89 9.98, 249 29 M249 29 C249.59 40.93, 250.71 55.83, 249 87 M249 29 C248.78 42.94, 248.32 55.82, 249 87 M249 87 C249.88 107.34, 237.89 114.57, 220 116 M249 87 C248.83 107.85, 240.94 118.14, 220 116 M220 116 C147.83 115.52, 77.74 116.35, 29 116 M220 116 C175.67 114.29, 130.4 114.32, 29 116 M29 116 C7.98 114.41, -0.64 107.5, 0 87 M29 116 C10.88 117.91, -0.49 104.7, 0 87 M0 87 C-1.04 71.87, 1.09 54.61, 0 29 M0 87 C-1.24 67.47, 0.29 47.14, 0 29 M0 29 C0.91 9.27, 10.72 -1.48, 29 0 M0 29 C1.22 8.99, 8.38 0.92, 29 0" stroke="#000000" stroke-width="1" fill="none"></path></g><g transform="translate(330.1970087538017 410.8649803419121) rotate(0 112.65991973876953 12)"><text x="112.65991973876953" y="0" font-family="Virgil, Segoe UI Emoji" font-size="20px" fill="#000000" text-anchor="middle" style="white-space: pre;" direction="ltr">App/Workload with IAM</text></g><g stroke-linecap="round" transform="translate(961.8142596834177 1115.5413501545313) rotate(0 124.5 58)"><path d="M29 0 M29 0 C89.87 -2.75, 152.37 -1.62, 220 0 M29 0 C88.86 -1.34, 147.71 -1.91, 220 0 M220 0 C240.46 1.24, 247.24 10.42, 249 29 M220 0 C239.75 0.61, 246.84 10, 249 29 M249 29 C248.71 46.6, 248.56 60.35, 249 87 M249 29 C248.91 44.27, 248.52 58.39, 249 87 M249 87 C250.56 104.39, 237.84 117.28, 220 116 M249 87 C251.12 107.89, 238.15 114.66, 220 116 M220 116 C148.77 115.66, 77.13 116.26, 29 116 M220 116 C171.73 117.7, 122.26 117.18, 29 116 M29 116 C10.76 114.22, -1.94 106.13, 0 87 M29 116 C8.18 116.87, 1.7 106.6, 0 87 M0 87 C1.26 70.12, 1.96 54.52, 0 29 M0 87 C0.63 71.78, 0.06 58.01, 0 29 M0 29 C1.02 8.2, 10.83 -1.23, 29 0 M0 29 C-1.21 7.47, 7.52 0, 29 0" stroke="#000000" stroke-width="1" fill="none"></path></g><g transform="translate(993.5143252962107 1137.5413501545313) rotate(0 92.79993438720703 36)"><text x="92.79993438720703" y="-48" font-family="Virgil, Segoe UI Emoji" font-size="20px" fill="#000000" text-anchor="middle" style="white-space: pre;" direction="ltr">S3/AWS Terraform</text><text x="92.79993438720703" y="-24" font-family="Virgil, Segoe UI Emoji" font-size="20px" fill="#000000" text-anchor="middle" style="white-space: pre;" direction="ltr">Your terraform</text><text x="92.79993438720703" y="0" font-family="Virgil, Segoe UI Emoji" font-size="20px" fill="#000000" text-anchor="middle" style="white-space: pre;" direction="ltr">Your GitHub</text></g><g stroke-linecap="round" transform="translate(312.93328241479617 1300.198545621324) rotate(359.96708190495497 124.49999999999997 58)"><path d="M29 0 M29 0 C92.41 -0.65, 160.36 -1.84, 220 0 M29 0 C96.07 2.01, 163.65 1.91, 220 0 M220 0 C238.64 -1.6, 249.18 10.5, 249 29 M220 0 C237.7 1.45, 249.74 9.55, 249 29 M249 29 C247.15 51.85, 247.58 75.71, 249 87 M249 29 C248.85 42.7, 247.67 55.59, 249 87 M249 87 C248.01 107.5, 241.23 117.89, 220 116 M249 87 C246.91 104.83, 237.93 116.72, 220 116 M220 116 C174.55 116.25, 131.44 117.38, 29 116 M220 116 C180.15 114.91, 141.91 114.7, 29 116 M29 116 C8.88 114.14, -0.21 106.63, 0 87 M29 116 C11.45 114.34, -1.76 106.99, 0 87 M0 87 C0.21 71.65, -1.86 54.28, 0 29 M0 87 C-0.2 70.08, -1.15 52.46, 0 29 M0 29 C-0.3 9.3, 10.28 0.01, 29 0 M0 29 C-0.92 11.64, 8.17 0.85, 29 0" stroke="#000000" stroke-width="1" fill="none"></path></g><g transform="translate(336.55336908471804 1310.198545621324) rotate(359.96708190495497 100.8799133300781 48)"><text x="100.87991333007812" y="-72" font-family="Virgil, Segoe UI Emoji" font-size="20px" fill="#000000" text-anchor="middle" style="white-space: pre;" direction="ltr">Humanitec Resource </text><text x="100.87991333007812" y="-48" font-family="Virgil, Segoe UI Emoji" font-size="20px" fill="#000000" text-anchor="middle" style="white-space: pre;" direction="ltr">Definition</text><text x="100.87991333007812" y="-24" font-family="Virgil, Segoe UI Emoji" font-size="20px" fill="#000000" text-anchor="middle" style="white-space: pre;" direction="ltr">S3 (or any AWS </text><text x="100.87991333007812" y="0" font-family="Virgil, Segoe UI Emoji" font-size="20px" fill="#000000" text-anchor="middle" style="white-space: pre;" direction="ltr">Resource)</text></g><g mask="url(#mask-SA3NKJqpBnJGQ7LiJp-Z0)" stroke-linecap="round"><g transform="translate(585.2829278614288 1376.0286838848358) rotate(0 182.14865340853208 -98.12440394368889)"><path d="M0.35 -1.06 C60.75 -33.7, 302.37 -162.9, 362.92 -195.35 M-0.92 1 C59.81 -32.05, 304.59 -164.68, 365.22 -197.25" stroke="#000000" stroke-width="1" fill="none"></path></g><g transform="translate(585.2829278614288 1376.0286838848358) rotate(0 182.14865340853208 -98.12440394368889)"><path d="M343.52 -176.13 C352.78 -182.69, 358.97 -190.28, 366.95 -198.98 M345.34 -174.12 C352.52 -183.5, 358.61 -190.91, 365.01 -196.38" stroke="#000000" stroke-width="1" fill="none"></path></g><g transform="translate(585.2829278614288 1376.0286838848358) rotate(0 182.14865340853208 -98.12440394368889)"><path d="M333.77 -194.18 C346.46 -194.56, 356 -195.94, 366.95 -198.98 M335.59 -192.18 C346.22 -195.48, 355.64 -196.72, 365.01 -196.38" stroke="#000000" stroke-width="1" fill="none"></path></g></g><mask id="mask-SA3NKJqpBnJGQ7LiJp-Z0"><rect x="0" y="0" fill="#fff" width="1048.9796588324132" height="1671.814157887196"></rect><rect x="625.2914038205538" y="1182.1359468836558" fill="#000" width="283.6797790527344" height="192" opacity="1"></rect></mask><g transform="translate(625.2914038205538 1182.1359468836556) rotate(0 142.14017744940708 95.76833305749119)"><text x="141.8398895263672" y="-168" font-family="Virgil, Segoe UI Emoji" font-size="20px" fill="#000000" text-anchor="middle" style="white-space: pre;" direction="ltr">Resource Definitions holds </text><text x="141.8398895263672" y="-144" font-family="Virgil, Segoe UI Emoji" font-size="20px" fill="#000000" text-anchor="middle" style="white-space: pre;" direction="ltr">all the metadata to </text><text x="141.8398895263672" y="-120" font-family="Virgil, Segoe UI Emoji" font-size="20px" fill="#000000" text-anchor="middle" style="white-space: pre;" direction="ltr">produce an Resource</text><text x="141.8398895263672" y="-96" font-family="Virgil, Segoe UI Emoji" font-size="20px" fill="#000000" text-anchor="middle" style="white-space: pre;" direction="ltr">Such as AWS Keys, Roles,  </text><text x="141.8398895263672" y="-72" font-family="Virgil, Segoe UI Emoji" font-size="20px" fill="#000000" text-anchor="middle" style="white-space: pre;" direction="ltr">Naming Conventions, where to</text><text x="141.8398895263672" y="-48" font-family="Virgil, Segoe UI Emoji" font-size="20px" fill="#000000" text-anchor="middle" style="white-space: pre;" direction="ltr">pull source code, etc.</text><text x="141.8398895263672" y="-24" font-family="Virgil, Segoe UI Emoji" font-size="20px" fill="#000000" text-anchor="middle" style="white-space: pre;" direction="ltr">Along with their Inputs and </text><text x="141.8398895263672" y="0" font-family="Virgil, Segoe UI Emoji" font-size="20px" fill="#000000" text-anchor="middle" style="white-space: pre;" direction="ltr">Outputs</text></g><g stroke-linecap="round" transform="translate(318.5073039128206 1066.8414651247783) rotate(359.96708190495497 124.5 58)"><path d="M29 0 M29 0 C69.4 -1.29, 114.29 -0.15, 220 0 M29 0 C75.3 0.4, 122.75 0.62, 220 0 M220 0 C239.96 1.61, 250.34 10.91, 249 29 M220 0 C239.07 0.41, 251.05 7.7, 249 29 M249 29 C249.59 44.89, 251.45 58.14, 249 87 M249 29 C249.05 41.03, 248.46 53.93, 249 87 M249 87 C249.52 107.75, 239.64 114.68, 220 116 M249 87 C249.67 104.27, 237.9 117.67, 220 116 M220 116 C156.01 118.3, 95.74 117.27, 29 116 M220 116 C155.42 117, 91.27 117.31, 29 116 M29 116 C8.14 117.5, 0.3 106.43, 0 87 M29 116 C9.19 115.37, -0.56 107.31, 0 87 M0 87 C-0.42 73.67, -0.95 61.51, 0 29 M0 87 C-0.24 68.69, -0.54 49.47, 0 29 M0 29 C-1.61 8.34, 10.64 -0.78, 29 0 M0 29 C1.02 11.93, 11.26 2.04, 29 0" stroke="#000000" stroke-width="1" fill="none"></path></g><g transform="translate(342.12739058274246 1088.8414651247783) rotate(359.96708190495497 100.87991333007812 36)"><text x="100.87991333007812" y="-48" font-family="Virgil, Segoe UI Emoji" font-size="20px" fill="#000000" text-anchor="middle" style="white-space: pre;" direction="ltr">Humanitec Resource </text><text x="100.87991333007812" y="-24" font-family="Virgil, Segoe UI Emoji" font-size="20px" fill="#000000" text-anchor="middle" style="white-space: pre;" direction="ltr">Definition</text><text x="100.87991333007812" y="0" font-family="Virgil, Segoe UI Emoji" font-size="20px" fill="#000000" text-anchor="middle" style="white-space: pre;" direction="ltr">Policy</text></g><g stroke-linecap="round" transform="translate(302.0971476628206 838.5377710047891) rotate(359.96708190495497 124.5 58)"><path d="M29 0 M29 0 C103.63 -2.28, 181.13 0.55, 220 0 M29 0 C104.68 1.18, 179.11 1.03, 220 0 M220 0 C240.3 0.97, 248.96 10.28, 249 29 M220 0 C237.65 -1.35, 247.21 10.18, 249 29 M249 29 C249.49 40.02, 249.1 52.68, 249 87 M249 29 C249.64 48.56, 249.24 66.29, 249 87 M249 87 C249.1 104.57, 240.65 114.51, 220 116 M249 87 C247.3 108.22, 240.21 114.61, 220 116 M220 116 C157.61 115.11, 90.9 116.21, 29 116 M220 116 C145.91 115.89, 73.74 114.92, 29 116 M29 116 C10.2 116.1, -0.85 105.21, 0 87 M29 116 C11.51 115.13, -1.75 106.85, 0 87 M0 87 C-1.4 71.89, 1.66 57.78, 0 29 M0 87 C0.41 66.01, -1.12 45.72, 0 29 M0 29 C1.22 8.11, 11.58 0.74, 29 0 M0 29 C-1.78 10.89, 11.09 0.57, 29 0" stroke="#000000" stroke-width="1" fill="none"></path></g><g transform="translate(325.71723433274246 860.5377710047891) rotate(359.96708190495497 100.87991333007812 36)"><text x="100.87991333007812" y="-48" font-family="Virgil, Segoe UI Emoji" font-size="20px" fill="#000000" text-anchor="middle" style="white-space: pre;" direction="ltr">Humanitec Resource </text><text x="100.87991333007812" y="-24" font-family="Virgil, Segoe UI Emoji" font-size="20px" fill="#000000" text-anchor="middle" style="white-space: pre;" direction="ltr">Definition</text><text x="100.87991333007812" y="0" font-family="Virgil, Segoe UI Emoji" font-size="20px" fill="#000000" text-anchor="middle" style="white-space: pre;" direction="ltr">Role</text></g><g stroke-linecap="round" transform="translate(938.4253620069421 869.2242347876604) rotate(0 124.5 58)"><path d="M29 0 M29 0 C94.12 0, 160.3 -0.42, 220 0 M29 0 C93.44 0.59, 159.15 -0.48, 220 0 M220 0 C237.44 0.14, 248.19 8.11, 249 29 M220 0 C240.88 1.31, 248.27 9.37, 249 29 M249 29 C247.97 46.7, 249.35 64.26, 249 87 M249 29 C248.48 44.04, 247.62 59.82, 249 87 M249 87 C248.17 107.81, 238.37 115.27, 220 116 M249 87 C248.9 107.62, 241.3 118.1, 220 116 M220 116 C146.64 115.75, 71.45 114.66, 29 116 M220 116 C150.34 117.17, 80.6 118.55, 29 116 M29 116 C9.43 116.86, -0.16 107.41, 0 87 M29 116 C11.48 116.51, -0.34 105.54, 0 87 M0 87 C0.9 70.13, 1.26 52.05, 0 29 M0 87 C-0.63 66.89, 0.29 46.9, 0 29 M0 29 C-1.38 8.17, 9.91 1.57, 29 0 M0 29 C0.12 8.58, 11.44 -1.03, 29 0" stroke="#000000" stroke-width="1" fill="none"></path></g><g transform="translate(981.4354404371179 891.2242347876604) rotate(0 81.48992156982422 36)"><text x="81.48992156982422" y="-48" font-family="Virgil, Segoe UI Emoji" font-size="20px" fill="#000000" text-anchor="middle" style="white-space: pre;" direction="ltr">Policy Terraform</text><text x="81.48992156982422" y="-24" font-family="Virgil, Segoe UI Emoji" font-size="20px" fill="#000000" text-anchor="middle" style="white-space: pre;" direction="ltr">Your terraform</text><text x="81.48992156982422" y="0" font-family="Virgil, Segoe UI Emoji" font-size="20px" fill="#000000" text-anchor="middle" style="white-space: pre;" direction="ltr">Your GitHub</text></g><g stroke-linecap="round" transform="translate(921.1110787773873 628.0386300524897) rotate(0 124.5 58)"><path d="M29 0 M29 0 C76.93 -0.15, 127.86 2.92, 220 0 M29 0 C86.87 -1.53, 145.11 -2.35, 220 0 M220 0 C240.58 -0.8, 247.21 10.28, 249 29 M220 0 C239.27 -0.74, 247.49 8.59, 249 29 M249 29 C249.65 49.45, 249.79 69.83, 249 87 M249 29 C247.84 42.21, 249 54.55, 249 87 M249 87 C248.98 104.4, 238.16 116.76, 220 116 M249 87 C249.41 107.87, 239.98 117.44, 220 116 M220 116 C156.59 114.65, 92.72 115.82, 29 116 M220 116 C144.84 114.54, 70.45 114.72, 29 116 M29 116 C10.2 116.76, 0.29 104.37, 0 87 M29 116 C11.45 114.48, -1.89 106.05, 0 87 M0 87 C0.35 65.86, 1.8 47.23, 0 29 M0 87 C-0.34 72.39, -0.61 56.42, 0 29 M0 29 C-1.5 7.98, 9.82 -1.89, 29 0 M0 29 C-0.2 8.48, 9.48 -0.83, 29 0" stroke="#000000" stroke-width="1" fill="none"></path></g><g transform="translate(970.3811440850045 650.0386300524897) rotate(0 75.22993469238281 36)"><text x="75.22993469238281" y="-48" font-family="Virgil, Segoe UI Emoji" font-size="20px" fill="#000000" text-anchor="middle" style="white-space: pre;" direction="ltr">Role Terraform</text><text x="75.22993469238281" y="-24" font-family="Virgil, Segoe UI Emoji" font-size="20px" fill="#000000" text-anchor="middle" style="white-space: pre;" direction="ltr">Your terraform</text><text x="75.22993469238281" y="0" font-family="Virgil, Segoe UI Emoji" font-size="20px" fill="#000000" text-anchor="middle" style="white-space: pre;" direction="ltr">Your GitHub</text></g><g stroke-linecap="round"><g transform="translate(564.1702184450241 880.8481654567142) rotate(0 175.03244376894355 -96.13309530411959)"><path d="M-0.79 -0.98 C57.88 -33.05, 292.29 -159.49, 350.86 -191.46 M0.99 1.11 C59.6 -31.4, 291.73 -161.2, 349.83 -193.38" stroke="#000000" stroke-width="1" fill="none"></path></g><g transform="translate(564.1702184450241 880.8481654567142) rotate(0 175.03244376894355 -96.13309530411959)"><path d="M328.55 -170.95 C334.62 -175.84, 336.36 -179.57, 347.95 -191.78 M330.53 -170.99 C335.54 -176.66, 339.45 -182.22, 348.99 -193.3" stroke="#000000" stroke-width="1" fill="none"></path></g><g transform="translate(564.1702184450241 880.8481654567142) rotate(0 175.03244376894355 -96.13309530411959)"><path d="M318.57 -188.88 C326.78 -190.09, 330.54 -190.2, 347.95 -191.78 M320.55 -188.92 C327.85 -190.34, 334.13 -191.66, 348.99 -193.3" stroke="#000000" stroke-width="1" fill="none"></path></g></g><mask></mask><g stroke-linecap="round"><g transform="translate(581.3391189623819 1109.7108159721336) rotate(0 178.01664944294538 -86.95088120139172)"><path d="M0.56 0.5 C59.61 -28.35, 295.49 -143.79, 354.47 -172.67 M-0.61 -0.28 C58.79 -29.52, 297.09 -145.32, 356.65 -174.4" stroke="#000000" stroke-width="1" fill="none"></path></g><g transform="translate(581.3391189623819 1109.7108159721336) rotate(0 178.01664944294538 -86.95088120139172)"><path d="M336.63 -154.52 C343.48 -161.47, 349.83 -167.66, 356.5 -175.62 M336.18 -152.74 C344.18 -161.05, 351.23 -169.34, 357.64 -174.35" stroke="#000000" stroke-width="1" fill="none"></path></g><g transform="translate(581.3391189623819 1109.7108159721336) rotate(0 178.01664944294538 -86.95088120139172)"><path d="M327.64 -172.97 C337.38 -174.18, 346.55 -174.59, 356.5 -175.62 M327.19 -171.19 C338.72 -172.7, 349.11 -174.1, 357.64 -174.35" stroke="#000000" stroke-width="1" fill="none"></path></g></g><mask></mask><g mask="url(#mask-BkSDRxXyOFnZX0u0xJ4sR)" stroke-linecap="round"><g transform="translate(429.30353014083096 1295.3194827595598) rotate(0 1.1602947022648493 -47.839676059437295)"><path d="M0.94 1.14 C1.17 -15.17, 0.31 -80.54, 0.22 -96.82 M-0.03 0.69 C0.67 -14.93, 1.88 -79.51, 2.35 -95.51" stroke="#000000" stroke-width="1" fill="none"></path></g><g transform="translate(429.30353014083096 1295.3194827595598) rotate(0 1.1602947022648493 -47.839676059437295)"><path d="M13.83 -68.92 C9.05 -74.25, 7.61 -76.46, 3.67 -94.25 M12.44 -67.61 C7.74 -78.18, 4.07 -89.53, 1.87 -94.96" stroke="#000000" stroke-width="1" fill="none"></path></g><g transform="translate(429.30353014083096 1295.3194827595598) rotate(0 1.1602947022648493 -47.839676059437295)"><path d="M-6.68 -69.41 C-7.35 -74.8, -4.68 -76.91, 3.67 -94.25 M-8.08 -68.09 C-4.9 -78.28, -0.69 -89.44, 1.87 -94.96" stroke="#000000" stroke-width="1" fill="none"></path></g></g><mask id="mask-BkSDRxXyOFnZX0u0xJ4sR"><rect x="0" y="0" fill="#fff" width="530.6261950259372" height="1491.6956583412784"></rect><rect x="370.1549108011576" y="1235.1313949687008" fill="#000" width="119.61990356445312" height="24" opacity="1"></rect></mask><g transform="translate(370.1549108011576 1235.1313949687005) rotate(0 60.308914041938266 12.348411731422004)"><text x="59.80995178222656" y="0" font-family="Virgil, Segoe UI Emoji" font-size="20px" fill="#000000" text-anchor="middle" style="white-space: pre;" direction="ltr">Provide ARN</text></g><g mask="url(#mask-WdY_WH5zpWIX8DnDlxhnR)" stroke-linecap="round"><g transform="translate(436.1003195214199 1063.0184444402857) rotate(0 0.4403608282318032 -48.26403667302162)"><path d="M0.36 -0.83 C0.74 -17.08, 1.65 -80.05, 1.79 -96.37 M-0.91 1.34 C-0.55 -14.69, 1.13 -81.31, 1.4 -97.87" stroke="#000000" stroke-width="1" fill="none"></path></g><g transform="translate(436.1003195214199 1063.0184444402857) rotate(0 0.4403608282318032 -48.26403667302162)"><path d="M9.66 -67.71 C10.27 -75.94, 3.84 -83.84, 3.18 -99.45 M10.89 -69.58 C7.95 -80.74, 3.11 -91.56, 0.81 -98.17" stroke="#000000" stroke-width="1" fill="none"></path></g><g transform="translate(436.1003195214199 1063.0184444402857) rotate(0 0.4403608282318032 -48.26403667302162)"><path d="M-10.85 -68.15 C-4.97 -76.33, -6.12 -84.12, 3.18 -99.45 M-9.63 -70.02 C-4.97 -80.85, -2.22 -91.51, 0.81 -98.17" stroke="#000000" stroke-width="1" fill="none"></path></g></g><mask id="mask-WdY_WH5zpWIX8DnDlxhnR"><rect x="0" y="0" fill="#fff" width="536.841592249451" height="1260.5604215289663"></rect><rect x="376.66100410320894" y="1002.2474558959454" fill="#000" width="119.61990356445312" height="24" opacity="1"></rect></mask><g transform="translate(376.6610041032088 1002.2474558959454) rotate(0 59.87967624644284 12.506951871318677)"><text x="59.80995178222656" y="0" font-family="Virgil, Segoe UI Emoji" font-size="20px" fill="#000000" text-anchor="middle" style="white-space: pre;" direction="ltr">Provide ARN</text></g><g stroke-linecap="round" transform="translate(315.5619914128206 619.2438088747783) rotate(359.96708190495497 124.5 58)"><path d="M29 0 M29 0 C95.11 0.21, 159.64 -1.83, 220 0 M29 0 C88.11 -1.83, 148.21 -1.48, 220 0 M220 0 C238.13 0.09, 247.51 9.09, 249 29 M220 0 C238.89 1.59, 248.88 8.81, 249 29 M249 29 C249.55 50.75, 247.79 71.26, 249 87 M249 29 C249.28 52.35, 249.95 74.64, 249 87 M249 87 C249.59 106.32, 238.5 115.26, 220 116 M249 87 C250.02 108.17, 239.14 117.87, 220 116 M220 116 C156.22 116.86, 90.33 113.73, 29 116 M220 116 C152.53 116.39, 82.93 116.27, 29 116 M29 116 C11.35 116.45, 0.09 106.59, 0 87 M29 116 C11.77 114.87, -0.55 104.54, 0 87 M0 87 C-0.46 72.66, 1.11 56.59, 0 29 M0 87 C0.15 73.14, 0.82 59.08, 0 29 M0 29 C1.63 7.95, 8.98 1.36, 29 0 M0 29 C-0.34 11.94, 9.89 -1.52, 29 0" stroke="#000000" stroke-width="1" fill="none"></path></g><g transform="translate(339.18207808274246 641.2438088747783) rotate(359.96708190495497 100.87991333007812 36)"><text x="100.87991333007812" y="-48" font-family="Virgil, Segoe UI Emoji" font-size="20px" fill="#000000" text-anchor="middle" style="white-space: pre;" direction="ltr">Humanitec Resource </text><text x="100.87991333007812" y="-24" font-family="Virgil, Segoe UI Emoji" font-size="20px" fill="#000000" text-anchor="middle" style="white-space: pre;" direction="ltr">Definition</text><text x="100.87991333007812" y="0" font-family="Virgil, Segoe UI Emoji" font-size="20px" fill="#000000" text-anchor="middle" style="white-space: pre;" direction="ltr">Service Account</text></g><g mask="url(#mask-rfmN1TH_jI3VqcmzJUl-G)" stroke-linecap="round"><g transform="translate(421.8476789471756 837.1719990528791) rotate(0 0.6198046625212896 -48.687015003222655)"><path d="M0.65 -0.49 C0.96 -16.61, 1.76 -81.13, 1.71 -96.89 M-0.47 -1.79 C-0.22 -17.79, 1.31 -80.03, 1.27 -95.89" stroke="#000000" stroke-width="1" fill="none"></path></g><g transform="translate(421.8476789471756 837.1719990528791) rotate(0 0.6198046625212896 -48.687015003222655)"><path d="M10.36 -65.94 C6.64 -76.32, 6.88 -84.06, 3.25 -95.7 M11.18 -68.51 C8.98 -73.89, 7.27 -81.51, 1.36 -95.89" stroke="#000000" stroke-width="1" fill="none"></path></g><g transform="translate(421.8476789471756 837.1719990528791) rotate(0 0.6198046625212896 -48.687015003222655)"><path d="M-10.16 -66.21 C-7.99 -76.62, -1.87 -84.29, 3.25 -95.7 M-9.34 -68.78 C-6.74 -73.97, -3.65 -81.53, 1.36 -95.89" stroke="#000000" stroke-width="1" fill="none"></path></g></g><mask id="mask-rfmN1TH_jI3VqcmzJUl-G"><rect x="0" y="0" fill="#fff" width="522.5818319270976" height="1033.028458811078"></rect><rect x="362.40480365491" y="777.2437691737796" fill="#000" width="119.61990356445312" height="24" opacity="1"></rect></mask><g transform="translate(362.40480365491 777.2437691737796) rotate(0 60.06267995478686 11.241214875876892)"><text x="59.80995178222656" y="0" font-family="Virgil, Segoe UI Emoji" font-size="20px" fill="#000000" text-anchor="middle" style="white-space: pre;" direction="ltr">Provide ARN</text></g><g mask="url(#mask-HKVGXik94KAuoa-8vfS08)" stroke-linecap="round"><g transform="translate(440.03617411785626 613.4510142996526) rotate(0 0.5078747381310791 -54.02054280466871)"><path d="M-0.87 0.56 C-1.08 -17.6, -0.32 -90.6, -0.22 -108.6 M0.87 -0.19 C0.93 -18.23, 1.73 -89.13, 1.92 -107.35" stroke="#000000" stroke-width="1" fill="none"></path></g><g transform="translate(440.03617411785626 613.4510142996526) rotate(0 0.5078747381310791 -54.02054280466871)"><path d="M12.81 -80.84 C7.07 -91.89, 5.13 -101.81, -0.06 -105.85 M11.92 -79.31 C9.93 -85.57, 6.36 -92.85, 1.64 -107.18" stroke="#000000" stroke-width="1" fill="none"></path></g><g transform="translate(440.03617411785626 613.4510142996526) rotate(0 0.5078747381310791 -54.02054280466871)"><path d="M-7.71 -81.06 C-5.57 -91.87, 0.39 -101.71, -0.06 -105.85 M-8.6 -79.53 C-5.59 -85.86, -4.17 -93.08, 1.64 -107.18" stroke="#000000" stroke-width="1" fill="none"></path></g></g><mask id="mask-HKVGXik94KAuoa-8vfS08"><rect x="0" y="0" fill="#fff" width="540.8870323831529" height="821.5097045073929"></rect><rect x="369.6516590976726" y="547.4216691957824" fill="#000" width="141.61988830566406" height="24" opacity="1"></rect></mask><g transform="translate(369.6516590976727 547.4216691957823) rotate(0 70.89238975831472 12.008802299201477)"><text x="70.80994415283203" y="0" font-family="Virgil, Segoe UI Emoji" font-size="20px" fill="#000000" text-anchor="middle" style="white-space: pre;" direction="ltr">Attaches Role</text></g><g stroke-linecap="round" transform="translate(321.2180869434019 1695.692355055199) rotate(0 124.5 58)"><path d="M29 0 M29 0 C70.32 1.68, 111.31 0.74, 220 0 M29 0 C81.22 0.3, 135.94 1.95, 220 0 M220 0 C238.17 -0.2, 249 9.84, 249 29 M220 0 C239.32 2.04, 247.27 9.8, 249 29 M249 29 C249.3 45.64, 250.47 62.04, 249 87 M249 29 C249.46 42.01, 248.72 53.52, 249 87 M249 87 C248.62 106.6, 239.31 116.41, 220 116 M249 87 C247.15 106.09, 237.5 114.21, 220 116 M220 116 C149.33 117.84, 79.53 118.85, 29 116 M220 116 C177.97 116.43, 137.34 117.37, 29 116 M29 116 C8.79 116.65, -0.47 108.29, 0 87 M29 116 C9.88 117.92, -2.06 104.76, 0 87 M0 87 C-1.95 63.8, -1.67 40.41, 0 29 M0 87 C0.23 71.54, 0.11 55.14, 0 29 M0 29 C1.55 9.99, 9.19 0.91, 29 0 M0 29 C-2.16 10.82, 11.74 0.57, 29 0" stroke="#000000" stroke-width="1" fill="none"></path></g><g transform="translate(333.05816720463235 1741.6923550551994) rotate(0 112.65991973876953 12)"><text x="112.65991973876953" y="0" font-family="Virgil, Segoe UI Emoji" font-size="20px" fill="#000000" text-anchor="middle" style="white-space: pre;" direction="ltr">App/Workload with IAM</text></g><g stroke-linecap="round" transform="translate(697.4945199139092 2039.760594215487) rotate(0 124.5 58)"><path d="M29 0 M29 0 C93.17 -2.19, 155.5 -0.05, 220 0 M29 0 C98.51 -0.26, 167.96 0.16, 220 0 M220 0 C238.49 -0.26, 247.5 11.34, 249 29 M220 0 C237.95 -0.33, 247.92 10.02, 249 29 M249 29 C251.06 44.74, 250.43 60.79, 249 87 M249 29 C249.88 46.54, 248.73 63.13, 249 87 M249 87 C250.59 107.48, 239.26 117.06, 220 116 M249 87 C247.91 108.15, 239.34 116.84, 220 116 M220 116 C165.36 115.14, 110.95 115.04, 29 116 M220 116 C175.4 117.01, 129.64 117.08, 29 116 M29 116 C9.12 115.87, 0.79 105.05, 0 87 M29 116 C10.14 114.68, -0.38 105.94, 0 87 M0 87 C0.22 75.29, 0.67 61.47, 0 29 M0 87 C0.3 72.89, 1.06 57.45, 0 29 M0 29 C0.32 11.5, 8.54 -1.05, 29 0 M0 29 C-0.4 11.39, 7.99 -0.07, 29 0" stroke="#000000" stroke-width="1" fill="none"></path></g><g transform="translate(746.5045907146906 2061.760594215487) rotate(0 75.48992919921875 36)"><text x="75.48992919921875" y="-48" font-family="Virgil, Segoe UI Emoji" font-size="20px" fill="#000000" text-anchor="middle" style="white-space: pre;" direction="ltr">Big Terraform</text><text x="75.48992919921875" y="-24" font-family="Virgil, Segoe UI Emoji" font-size="20px" fill="#000000" text-anchor="middle" style="white-space: pre;" direction="ltr">Your Terraform</text><text x="75.48992919921875" y="0" font-family="Virgil, Segoe UI Emoji" font-size="20px" fill="#000000" text-anchor="middle" style="white-space: pre;" direction="ltr">Your Github</text></g><g stroke-linecap="round"><g transform="translate(567.4978123305624 2249.952842920896) rotate(0 61.39774656421787 -50.076713453486946)"><path d="M-1.16 -0.01 C19.47 -16.5, 103.1 -81.86, 123.96 -98.44 M0.43 -1.05 C20.9 -17.94, 102.6 -83.94, 123.07 -100.15" stroke="#000000" stroke-width="1" fill="none"></path></g><g transform="translate(567.4978123305624 2249.952842920896) rotate(0 61.39774656421787 -50.076713453486946)"><path d="M107.48 -74.3 C113.57 -82.14, 116.69 -91.05, 121.69 -101.52 M106.74 -73.67 C111.24 -81.63, 115.62 -88.32, 122.78 -99.3" stroke="#000000" stroke-width="1" fill="none"></path></g><g transform="translate(567.4978123305624 2249.952842920896) rotate(0 61.39774656421787 -50.076713453486946)"><path d="M94.65 -90.32 C104.83 -93.01, 111.97 -96.9, 121.69 -101.52 M93.91 -89.69 C101.84 -93.26, 109.72 -95.58, 122.78 -99.3" stroke="#000000" stroke-width="1" fill="none"></path></g></g><mask></mask><g stroke-linecap="round" transform="translate(320.8812148095467 1942.3211057044105) rotate(359.96708190495497 124.5 58)"><path d="M29 0 M29 0 C95.3 1.32, 161.43 -0.44, 220 0 M29 0 C80.11 0.89, 131.64 0.56, 220 0 M220 0 C241.01 -1.21, 248.71 8.72, 249 29 M220 0 C239.69 -0.67, 250.94 11.24, 249 29 M249 29 C249.38 50.75, 250.51 73.78, 249 87 M249 29 C249.94 49.75, 250 68.88, 249 87 M249 87 C250.06 105.39, 240.91 116.01, 220 116 M249 87 C249.84 106.01, 241.16 115.09, 220 116 M220 116 C162.87 114.92, 107.93 116.52, 29 116 M220 116 C145.57 117.09, 69.63 117.76, 29 116 M29 116 C8.38 116.41, -1.15 106, 0 87 M29 116 C9.28 114.29, -1.4 106.06, 0 87 M0 87 C0.23 69.04, -1.92 53.22, 0 29 M0 87 C-0.59 70.6, 0.61 53.31, 0 29 M0 29 C-1.05 9.32, 11.16 -1.46, 29 0 M0 29 C-0.07 10.55, 9.96 1.4, 29 0" stroke="#000000" stroke-width="1" fill="none"></path></g><g transform="translate(344.50130147946857 1964.3211057044105) rotate(359.96708190495497 100.87991333007812 36)"><text x="100.87991333007812" y="-48" font-family="Virgil, Segoe UI Emoji" font-size="20px" fill="#000000" text-anchor="middle" style="white-space: pre;" direction="ltr">Humanitec Resource </text><text x="100.87991333007812" y="-24" font-family="Virgil, Segoe UI Emoji" font-size="20px" fill="#000000" text-anchor="middle" style="white-space: pre;" direction="ltr">Definition</text><text x="100.87991333007812" y="0" font-family="Virgil, Segoe UI Emoji" font-size="20px" fill="#000000" text-anchor="middle" style="white-space: pre;" direction="ltr">Service Account</text></g><g mask="url(#mask-rVqTvrEff4RzUagrCc3bj)" stroke-linecap="round"><g transform="translate(433.44014220464965 2208.663221877919) rotate(0 0.85497146665179 -72.50429432927046)"><path d="M0.79 0.15 C1.12 -24.06, 1.87 -120.87, 1.97 -145.16 M-0.26 -0.81 C-0.11 -24.87, 0.19 -119.83, 0.88 -143.82" stroke="#000000" stroke-width="1" fill="none"></path></g><g transform="translate(433.44014220464965 2208.663221877919) rotate(0 0.85497146665179 -72.50429432927046)"><path d="M11 -115.94 C7.14 -125.29, 3.43 -132.94, 0.04 -144.08 M10.6 -115.96 C8.44 -122.21, 6.91 -127.61, 1.66 -143.81" stroke="#000000" stroke-width="1" fill="none"></path></g><g transform="translate(433.44014220464965 2208.663221877919) rotate(0 0.85497146665179 -72.50429432927046)"><path d="M-9.52 -116.23 C-7.24 -125.63, -4.8 -133.19, 0.04 -144.08 M-9.92 -116.25 C-7.46 -122.31, -4.38 -127.64, 1.66 -143.81" stroke="#000000" stroke-width="1" fill="none"></path></g></g><mask id="mask-rVqTvrEff4RzUagrCc3bj"><rect x="0" y="0" fill="#fff" width="535.6814323976367" height="2453.4533708531417"></rect><rect x="374.7508355189166" y="2124.2681473903076" fill="#000" width="119.61990356445312" height="24" opacity="1"></rect></mask><g transform="translate(374.7508355189167 2124.2681473903076) rotate(0 59.544278152384805 11.890780158340817)"><text x="59.80995178222656" y="0" font-family="Virgil, Segoe UI Emoji" font-size="20px" fill="#000000" text-anchor="middle" style="white-space: pre;" direction="ltr">Provide ARN</text></g><g stroke-linecap="round" transform="translate(312.36062208038084 2214.1238554011043) rotate(359.96708190495497 124.5 58)"><path d="M29 0 M29 0 C102.07 0.03, 178.69 2.17, 220 0 M29 0 C97.79 -0.91, 167.15 -0.02, 220 0 M220 0 C239.47 1.2, 248.96 8.59, 249 29 M220 0 C237.68 1.71, 250.71 10.29, 249 29 M249 29 C247.2 40.98, 249.07 57.24, 249 87 M249 29 C250.38 50.64, 248.45 72.8, 249 87 M249 87 C249.39 106.61, 241.23 116.48, 220 116 M249 87 C246.73 107.37, 237.26 117.99, 220 116 M220 116 C146.35 118.46, 76.36 116.14, 29 116 M220 116 C162.34 117.24, 104.46 116.93, 29 116 M29 116 C10.7 116.67, -0.06 106.2, 0 87 M29 116 C10.01 115.82, 1.24 105.82, 0 87 M0 87 C0.97 68.24, 0.24 50.78, 0 29 M0 87 C0.56 73.71, 0.8 58.92, 0 29 M0 29 C1.88 9.8, 8.25 -0.43, 29 0 M0 29 C2 7.65, 11.57 0.24, 29 0" stroke="#000000" stroke-width="1" fill="none"></path></g><g transform="translate(335.9807087503027 2236.1238554011043) rotate(359.96708190495497 100.87991333007812 36)"><text x="100.87991333007812" y="-48" font-family="Virgil, Segoe UI Emoji" font-size="20px" fill="#000000" text-anchor="middle" style="white-space: pre;" direction="ltr">Humanitec Resource </text><text x="100.87991333007812" y="-24" font-family="Virgil, Segoe UI Emoji" font-size="20px" fill="#000000" text-anchor="middle" style="white-space: pre;" direction="ltr">Definition</text><text x="100.87991333007812" y="0" font-family="Virgil, Segoe UI Emoji" font-size="20px" fill="#000000" text-anchor="middle" style="white-space: pre;" direction="ltr">Role+Policy+S3</text></g><g stroke-linecap="round"><g transform="translate(446.8041444519023 1925.664483191466) rotate(0 -2.2758339502235856 -57.4718265647831)"><path d="M-1.01 0.93 C-1.66 -18.01, -3.87 -94.93, -4.86 -114.38 M0.66 0.37 C0.04 -18.81, -4.34 -96.72, -5.21 -115.87" stroke="#000000" stroke-width="1" fill="none"></path></g><g transform="translate(446.8041444519023 1925.664483191466) rotate(0 -2.2758339502235856 -57.4718265647831)"><path d="M8.03 -86.34 C6.11 -95.93, 1.28 -98.86, -6.45 -114.53 M7.11 -88.74 C2.7 -95.15, -1.01 -103.18, -5.56 -116.83" stroke="#000000" stroke-width="1" fill="none"></path></g><g transform="translate(446.8041444519023 1925.664483191466) rotate(0 -2.2758339502235856 -57.4718265647831)"><path d="M-12.46 -85.29 C-9.94 -94.93, -10.32 -98.09, -6.45 -114.53 M-13.39 -87.69 C-12.2 -94.2, -10.3 -102.52, -5.56 -116.83" stroke="#000000" stroke-width="1" fill="none"></path></g></g><mask></mask><g stroke-linecap="round" transform="translate(1527.300182847648 340.83360412994045) rotate(0 124.5 58)"><path d="M29 0 M29 0 C83.71 -1.62, 139.4 -0.18, 220 0 M29 0 C72.47 0.14, 118.64 0.27, 220 0 M220 0 C238.46 0.42, 247.81 7.73, 249 29 M220 0 C237.76 -0.92, 247.13 10.54, 249 29 M249 29 C248 44.47, 249.85 59.53, 249 87 M249 29 C249.59 50.71, 249.68 74.16, 249 87 M249 87 C250.16 108, 239.93 116.38, 220 116 M249 87 C248.36 107.55, 239.7 113.89, 220 116 M220 116 C156.69 117.26, 95.89 115.81, 29 116 M220 116 C157.81 115.4, 96.54 117.25, 29 116 M29 116 C10.47 115.89, -1.79 107.55, 0 87 M29 116 C7.63 115.04, 0.09 106.29, 0 87 M0 87 C1.34 71.83, 0.74 59.03, 0 29 M0 87 C-0.63 65.4, 0.11 44.61, 0 29 M0 29 C0.06 10.84, 10.94 0.4, 29 0 M0 29 C-0.55 9.43, 10.06 -0.37, 29 0" stroke="#000000" stroke-width="1" fill="none"></path></g><g transform="translate(1534.1402631088786 374.83360412994045) rotate(0 117.65991973876953 24)"><text x="117.65991973876953" y="-24" font-family="Virgil, Segoe UI Emoji" font-size="20px" fill="#000000" text-anchor="middle" style="white-space: pre;" direction="ltr">App/Workload with IAM </text><text x="117.65991973876953" y="0" font-family="Virgil, Segoe UI Emoji" font-size="20px" fill="#000000" text-anchor="middle" style="white-space: pre;" direction="ltr">in Account B</text></g><g stroke-linecap="round" transform="translate(2010.7419407232937 1139.8870004352843) rotate(0 124.5 77)"><path d="M32 0 M32 0 C99.56 1.4, 162.68 -0.56, 217 0 M32 0 C89.08 -0.06, 144.17 -0.2, 217 0 M217 0 C237.14 -1.93, 247.63 9.87, 249 32 M217 0 C236.46 0.87, 248.22 9.85, 249 32 M249 32 C249.7 58.77, 250.38 85.95, 249 122 M249 32 C250.36 53.73, 250.18 75.75, 249 122 M249 122 C249.6 143.72, 237.78 155.06, 217 154 M249 122 C249.37 141.22, 239.01 154.62, 217 154 M217 154 C161.94 154.71, 103.74 156.73, 32 154 M217 154 C157.46 153.09, 99.24 152.15, 32 154 M32 154 C8.87 155.22, -1.77 142.49, 0 122 M32 154 C10.76 153.96, -1.19 142.2, 0 122 M0 122 C-0.02 87.46, 0.96 50.65, 0 32 M0 122 C0.66 103.16, 0.76 83.45, 0 32 M0 32 C1.27 11.06, 10.19 -0.2, 32 0 M0 32 C0.39 10.3, 8.98 0.24, 32 0" stroke="#000000" stroke-width="1" fill="none"></path></g><g transform="translate(2026.1920215948758 1144.8870004352843) rotate(0 109.04991912841797 72)"><text x="109.04991912841797" y="-120" font-family="Virgil, Segoe UI Emoji" font-size="20px" fill="#000000" text-anchor="middle" style="white-space: pre;" direction="ltr">S3/Resource Static</text><text x="109.04991912841797" y="-96" font-family="Virgil, Segoe UI Emoji" font-size="20px" fill="#000000" text-anchor="middle" style="white-space: pre;" direction="ltr">w/ the existing </text><text x="109.04991912841797" y="-72" font-family="Virgil, Segoe UI Emoji" font-size="20px" fill="#000000" text-anchor="middle" style="white-space: pre;" direction="ltr">bucket/Resource in </text><text x="109.04991912841797" y="-48" font-family="Virgil, Segoe UI Emoji" font-size="20px" fill="#000000" text-anchor="middle" style="white-space: pre;" direction="ltr">Account A</text><text x="109.04991912841797" y="-24" font-family="Virgil, Segoe UI Emoji" font-size="20px" fill="#000000" text-anchor="middle" style="white-space: pre;" direction="ltr">The Resource can be </text><text x="109.04991912841797" y="0" font-family="Virgil, Segoe UI Emoji" font-size="20px" fill="#000000" text-anchor="middle" style="white-space: pre;" direction="ltr">Anything</text></g><g stroke-linecap="round" transform="translate(1521.6421688426333 1270.6620314584222) rotate(359.96708190495497 124.5 58)"><path d="M29 0 M29 0 C79.82 -1.92, 133.43 -2.79, 220 0 M29 0 C90.13 -0.46, 151.53 -1.63, 220 0 M220 0 C237.97 -0.8, 247.37 10.42, 249 29 M220 0 C238.55 -0.82, 249.03 8.76, 249 29 M249 29 C251.05 46.23, 248.08 65.32, 249 87 M249 29 C250.02 42.98, 249.74 55.5, 249 87 M249 87 C248.45 107.39, 239.65 114.16, 220 116 M249 87 C249.68 106.95, 239.5 115.59, 220 116 M220 116 C152.41 117.38, 84.33 114.3, 29 116 M220 116 C181.61 117.62, 141.51 118.29, 29 116 M29 116 C7.9 115.16, 0.08 106.3, 0 87 M29 116 C8.48 114.87, 2.14 107.55, 0 87 M0 87 C1.3 71.2, -1.78 55.03, 0 29 M0 87 C0.07 70.45, 0.68 52.92, 0 29 M0 29 C-0.48 9.46, 10.01 -0.32, 29 0 M0 29 C-1.69 9.91, 11.85 1.93, 29 0" stroke="#000000" stroke-width="1" fill="none"></path></g><g transform="translate(1537.9822567332583 1292.6620314584222) rotate(359.96708190495497 108.159912109375 36)"><text x="108.159912109375" y="-48" font-family="Virgil, Segoe UI Emoji" font-size="20px" fill="#000000" text-anchor="middle" style="white-space: pre;" direction="ltr">Humanitec Resource </text><text x="108.159912109375" y="-24" font-family="Virgil, Segoe UI Emoji" font-size="20px" fill="#000000" text-anchor="middle" style="white-space: pre;" direction="ltr">Definition</text><text x="108.159912109375" y="0" font-family="Virgil, Segoe UI Emoji" font-size="20px" fill="#000000" text-anchor="middle" style="white-space: pre;" direction="ltr">S3/Resource *Static*</text></g><g stroke-linecap="round"><g transform="translate(1776.4979129921614 1327.9346183743448) rotate(0 107.80923647948521 -70.50206148311935)"><path d="M-0.63 0.05 C34.97 -22.99, 178 -115.91, 214.14 -139.07 M1.24 -0.97 C37.14 -24.32, 180.47 -117.71, 216.25 -141.06" stroke="#000000" stroke-width="1" fill="none"></path></g><g transform="translate(1776.4979129921614 1327.9346183743448) rotate(0 107.80923647948521 -70.50206148311935)"><path d="M198.33 -118.99 C205.07 -123.7, 211.53 -134.41, 216.67 -142.25 M197.43 -116.69 C201.73 -122.23, 205.74 -127.14, 216.27 -140.53" stroke="#000000" stroke-width="1" fill="none"></path></g><g transform="translate(1776.4979129921614 1327.9346183743448) rotate(0 107.80923647948521 -70.50206148311935)"><path d="M187.12 -136.18 C197.61 -134.9, 207.95 -139.67, 216.67 -142.25 M186.22 -133.88 C192.68 -135.88, 198.97 -137.3, 216.27 -140.53" stroke="#000000" stroke-width="1" fill="none"></path></g></g><mask></mask><g stroke-linecap="round" transform="translate(1531.9968768978817 1025.1295726238973) rotate(359.96708190495497 124.5 58)"><path d="M29 0 M29 0 C76.67 3.39, 124.15 0.96, 220 0 M29 0 C89.63 1.45, 150.81 2.23, 220 0 M220 0 C238.66 -0.71, 249.02 8.88, 249 29 M220 0 C239.37 1.22, 248.61 11.67, 249 29 M249 29 C247.18 47.15, 249.19 63.43, 249 87 M249 29 C248.9 51.75, 249.33 72.52, 249 87 M249 87 C249.59 106.87, 239.48 115.64, 220 116 M249 87 C250.29 108.4, 238.96 116.51, 220 116 M220 116 C144.57 113.76, 74.77 115.48, 29 116 M220 116 C162.91 116.75, 107.63 117.15, 29 116 M29 116 C8.63 115.02, 1.86 107.39, 0 87 M29 116 C8.79 116.52, 0.95 107.98, 0 87 M0 87 C0.39 71.27, 1.93 55.89, 0 29 M0 87 C-0.61 66.08, -0.2 45.21, 0 29 M0 29 C-1.47 9.88, 11.56 1.68, 29 0 M0 29 C-1.15 10.51, 8.41 -1.56, 29 0" stroke="#000000" stroke-width="1" fill="none"></path></g><g transform="translate(1555.6169635678036 1047.1295726238973) rotate(359.96708190495497 100.87991333007812 36)"><text x="100.87991333007812" y="-48" font-family="Virgil, Segoe UI Emoji" font-size="20px" fill="#000000" text-anchor="middle" style="white-space: pre;" direction="ltr">Humanitec Resource </text><text x="100.87991333007812" y="-24" font-family="Virgil, Segoe UI Emoji" font-size="20px" fill="#000000" text-anchor="middle" style="white-space: pre;" direction="ltr">Definition</text><text x="100.87991333007812" y="0" font-family="Virgil, Segoe UI Emoji" font-size="20px" fill="#000000" text-anchor="middle" style="white-space: pre;" direction="ltr">Policy</text></g><g stroke-linecap="round" transform="translate(1519.0889854396626 798.8755821639913) rotate(359.96708190495497 124.5 58)"><path d="M29 0 M29 0 C68.64 -2.36, 107.3 -2.67, 220 0 M29 0 C67.01 1.14, 106.31 0.41, 220 0 M220 0 C239.36 -0.79, 249.03 10.73, 249 29 M220 0 C238.95 2, 248.7 8.25, 249 29 M249 29 C249.12 51.4, 250.24 72.09, 249 87 M249 29 C249 46.59, 249.14 66.28, 249 87 M249 87 C249.15 105.97, 240.46 117.79, 220 116 M249 87 C248.62 106.84, 241.28 116.45, 220 116 M220 116 C177.72 115.94, 131.81 113.34, 29 116 M220 116 C151.07 115.18, 81.55 114.71, 29 116 M29 116 C11.52 117.06, -0.77 106.79, 0 87 M29 116 C10.62 117.65, -0.72 104.43, 0 87 M0 87 C1.48 74.35, 1.2 62.85, 0 29 M0 87 C0.31 68.29, -0.6 50, 0 29 M0 29 C1.9 11.34, 8.67 0.73, 29 0 M0 29 C-1.25 8.11, 8.47 1.78, 29 0" stroke="#000000" stroke-width="1" fill="none"></path></g><g transform="translate(1542.7090721095844 820.8755821639913) rotate(359.96708190495497 100.87991333007812 36)"><text x="100.87991333007812" y="-48" font-family="Virgil, Segoe UI Emoji" font-size="20px" fill="#000000" text-anchor="middle" style="white-space: pre;" direction="ltr">Humanitec Resource </text><text x="100.87991333007812" y="-24" font-family="Virgil, Segoe UI Emoji" font-size="20px" fill="#000000" text-anchor="middle" style="white-space: pre;" direction="ltr">Definition</text><text x="100.87991333007812" y="0" font-family="Virgil, Segoe UI Emoji" font-size="20px" fill="#000000" text-anchor="middle" style="white-space: pre;" direction="ltr">Role</text></g><g stroke-linecap="round" transform="translate(1982.1520441251096 687.4834207195231) rotate(0 124.5 58)"><path d="M29 0 M29 0 C101.53 -0.35, 171.29 -0.53, 220 0 M29 0 C78.31 -1.08, 128.32 -1.12, 220 0 M220 0 C239.37 1.06, 248.66 11.41, 249 29 M220 0 C239.03 -1.42, 250.52 7.98, 249 29 M249 29 C250.82 51.4, 249.54 72.05, 249 87 M249 29 C249.39 49.74, 249.17 69.76, 249 87 M249 87 C250.12 108.13, 239 116.44, 220 116 M249 87 C250.95 106.78, 237.74 113.77, 220 116 M220 116 C171.29 114.98, 124.02 115, 29 116 M220 116 C170.19 115.48, 122.35 116.5, 29 116 M29 116 C8.9 116.45, 0.83 107.77, 0 87 M29 116 C8.95 114.1, -1.86 106.23, 0 87 M0 87 C0.76 71.28, -0.02 52.54, 0 29 M0 87 C-0.83 70.29, 0.85 54.21, 0 29 M0 29 C-1 10.4, 8.58 -1.36, 29 0 M0 29 C-1.2 11.45, 10.21 0.81, 29 0" stroke="#000000" stroke-width="1" fill="none"></path></g><g transform="translate(2031.4221094327268 709.4834207195231) rotate(0 75.22993469238281 36)"><text x="75.22993469238281" y="-48" font-family="Virgil, Segoe UI Emoji" font-size="20px" fill="#000000" text-anchor="middle" style="white-space: pre;" direction="ltr">Role Terraform</text><text x="75.22993469238281" y="-24" font-family="Virgil, Segoe UI Emoji" font-size="20px" fill="#000000" text-anchor="middle" style="white-space: pre;" direction="ltr">Your terraform</text><text x="75.22993469238281" y="0" font-family="Virgil, Segoe UI Emoji" font-size="20px" fill="#000000" text-anchor="middle" style="white-space: pre;" direction="ltr">Your GitHub</text></g><g stroke-linecap="round"><g transform="translate(1781.1617926390954 840.2134048431896) rotate(0 92.79774372734482 -44.87171828874841)"><path d="M-0.71 -1.16 C30.04 -16.3, 153.26 -75.84, 184.03 -90.59 M1.11 0.84 C32.3 -14.16, 155.45 -73.87, 186.31 -89.3" stroke="#000000" stroke-width="1" fill="none"></path></g><g transform="translate(1781.1617926390954 840.2134048431896) rotate(0 92.79774372734482 -44.87171828874841)"><path d="M163.6 -69.03 C170.01 -74.71, 176.89 -79.3, 185.6 -89.28 M165.36 -66.79 C170.81 -74.02, 177.02 -79.78, 187.07 -89.03" stroke="#000000" stroke-width="1" fill="none"></path></g><g transform="translate(1781.1617926390954 840.2134048431896) rotate(0 92.79774372734482 -44.87171828874841)"><path d="M154.55 -87.45 C163.32 -88.35, 172.51 -88.23, 185.6 -89.28 M156.32 -85.21 C164.12 -87.69, 172.68 -88.65, 187.07 -89.03" stroke="#000000" stroke-width="1" fill="none"></path></g></g><mask></mask><g mask="url(#mask--LC_INtMyvvSd1NagUEpz)" stroke-linecap="round"><g transform="translate(1644.8577740340884 1263.2038863200023) rotate(0 0.40513680098513305 -54.5555873932787)"><path d="M-0.82 -0.48 C-0.82 -18.08, -0.8 -88.89, -0.69 -106.75 M0.95 -1.78 C1.38 -19.64, 1.86 -91.17, 1.51 -108.63" stroke="#000000" stroke-width="1" fill="none"></path></g><g transform="translate(1644.8577740340884 1263.2038863200023) rotate(0 0.40513680098513305 -54.5555873932787)"><path d="M11.09 -82.11 C10.42 -88, 6.46 -94.06, 0.72 -108.6 M11.76 -81.1 C8.94 -91.06, 5.37 -99.99, 2.09 -107.8" stroke="#000000" stroke-width="1" fill="none"></path></g><g transform="translate(1644.8577740340884 1263.2038863200023) rotate(0 0.40513680098513305 -54.5555873932787)"><path d="M-9.43 -82.03 C-5.16 -87.8, -4.19 -93.88, 0.72 -108.6 M-8.76 -81.01 C-4.34 -91.18, -0.66 -100.15, 2.09 -107.8" stroke="#000000" stroke-width="1" fill="none"></path></g></g><mask id="mask--LC_INtMyvvSd1NagUEpz"><rect x="0" y="0" fill="#fff" width="1745.148639538345" height="1470.4040163339478"></rect><rect x="1585.19325500399" y="1197.6038213130296" fill="#000" width="119.61990356445312" height="24" opacity="1"></rect></mask><g transform="translate(1585.19325500399 1197.6038213130296) rotate(0 60.06965583108342 11.044477613694028)"><text x="59.80995178222656" y="0" font-family="Virgil, Segoe UI Emoji" font-size="20px" fill="#000000" text-anchor="middle" style="white-space: pre;" direction="ltr">Provide ARN</text></g><g mask="url(#mask-_E2hhRWgbVsM9_uI-vuTc)" stroke-linecap="round"><g transform="translate(1650.4851514300026 1021.3060375870069) rotate(0 0.4567568917086646 -47.73265442215194)"><path d="M-0.98 0.45 C-0.52 -15.45, 1.34 -79.85, 1.89 -95.92 M0.71 -0.35 C1.04 -16.05, 0.59 -78.85, 0.73 -94.61" stroke="#000000" stroke-width="1" fill="none"></path></g><g transform="translate(1650.4851514300026 1021.3060375870069) rotate(0 0.4567568917086646 -47.73265442215194)"><path d="M11.74 -67.09 C8.01 -73, 5.56 -79.52, 1.79 -94.94 M11.65 -67.15 C7.81 -77.12, 3.66 -87.47, 1.03 -94.42" stroke="#000000" stroke-width="1" fill="none"></path></g><g transform="translate(1650.4851514300026 1021.3060375870069) rotate(0 0.4567568917086646 -47.73265442215194)"><path d="M-8.78 -67.09 C-7.76 -72.84, -5.46 -79.36, 1.79 -94.94 M-8.87 -67.15 C-4.77 -76.99, -0.98 -87.34, 1.03 -94.42" stroke="#000000" stroke-width="1" fill="none"></path></g></g><mask id="mask-_E2hhRWgbVsM9_uI-vuTc"><rect x="0" y="0" fill="#fff" width="1752.781557097866" height="1216.7971923314888"></rect><rect x="1591.823402481708" y="961.5604602147661" fill="#000" width="119.61990356445312" height="24" opacity="1"></rect></mask><g transform="translate(1591.8234024817075 961.560460214766) rotate(0 59.118505840003536 12.012922950089035)"><text x="59.80995178222656" y="0" font-family="Virgil, Segoe UI Emoji" font-size="20px" fill="#000000" text-anchor="middle" style="white-space: pre;" direction="ltr">Provide ARN</text></g><g stroke-linecap="round" transform="translate(1527.7033932549386 577.8677750701157) rotate(359.96708190495497 124.5 58)"><path d="M29 0 M29 0 C70.05 0.67, 111.74 0.68, 220 0 M29 0 C96.29 -2.28, 164.5 -2.39, 220 0 M220 0 C240.85 0.54, 250.16 11.33, 249 29 M220 0 C240.02 0.44, 248.36 10.88, 249 29 M249 29 C249.01 47.47, 248.11 66.78, 249 87 M249 29 C249.75 51.8, 248.21 73.24, 249 87 M249 87 C248.09 108.09, 240.14 115.89, 220 116 M249 87 C246.94 107.74, 237.3 115.04, 220 116 M220 116 C160.97 116.87, 104.96 114.24, 29 116 M220 116 C158.06 116.54, 95.94 117.33, 29 116 M29 116 C9.53 117.45, 0.06 107.51, 0 87 M29 116 C11.13 116.46, -0.55 106.1, 0 87 M0 87 C0.3 70.51, 1.77 49.23, 0 29 M0 87 C-0.21 68.25, 0.55 48.3, 0 29 M0 29 C0.56 10.4, 9.47 -0.13, 29 0 M0 29 C-2.21 7.61, 7.65 2.3, 29 0" stroke="#000000" stroke-width="1" fill="none"></path></g><g transform="translate(1551.3234799248605 599.8677750701157) rotate(359.96708190495497 100.87991333007812 36)"><text x="100.87991333007812" y="-48" font-family="Virgil, Segoe UI Emoji" font-size="20px" fill="#000000" text-anchor="middle" style="white-space: pre;" direction="ltr">Humanitec Resource </text><text x="100.87991333007812" y="-24" font-family="Virgil, Segoe UI Emoji" font-size="20px" fill="#000000" text-anchor="middle" style="white-space: pre;" direction="ltr">Definition</text><text x="100.87991333007812" y="0" font-family="Virgil, Segoe UI Emoji" font-size="20px" fill="#000000" text-anchor="middle" style="white-space: pre;" direction="ltr">Service Account</text></g><g mask="url(#mask-jThxmH83KhNMgzQ8CKXdz)" stroke-linecap="round"><g transform="translate(1637.6784346867191 797.5104772876214) rotate(0 -1.2112063370188935 -49.59965791646832)"><path d="M0.01 -0.47 C-0.17 -16.56, -1.21 -80.93, -1.5 -96.94 M-1.44 -1.77 C-1.74 -18.17, -2.24 -82.63, -2.44 -98.72" stroke="#000000" stroke-width="1" fill="none"></path></g><g transform="translate(1637.6784346867191 797.5104772876214) rotate(0 -1.2112063370188935 -49.59965791646832)"><path d="M7.31 -70.6 C6.45 -78.44, 4.33 -85.85, -3.67 -97.4 M8.68 -69.8 C5.8 -76.79, 2.83 -82.82, -2.28 -99.64" stroke="#000000" stroke-width="1" fill="none"></path></g><g transform="translate(1637.6784346867191 797.5104772876214) rotate(0 -1.2112063370188935 -49.59965791646832)"><path d="M-13.21 -70.4 C-8.6 -78.3, -5.27 -85.76, -3.67 -97.4 M-11.84 -69.6 C-10.07 -76.69, -8.38 -82.76, -2.28 -99.64" stroke="#000000" stroke-width="1" fill="none"></path></g></g><mask id="mask-jThxmH83KhNMgzQ8CKXdz"><rect x="0" y="0" fill="#fff" width="1739.1984196604926" height="995.0822736587008"></rect><rect x="1577.1084904176062" y="736.7245791020816" fill="#000" width="119.61990356445312" height="24" opacity="1"></rect></mask><g transform="translate(1577.108490417606 736.7245791020816) rotate(0 59.3587379320943 11.186240269071419)"><text x="59.80995178222656" y="0" font-family="Virgil, Segoe UI Emoji" font-size="20px" fill="#000000" text-anchor="middle" style="white-space: pre;" direction="ltr">Provide ARN</text></g><g mask="url(#mask-HUCRt8xHm6exKW5LIJVGG)" stroke-linecap="round"><g transform="translate(1651.7283574897965 571.5918030887674) rotate(0 -0.9436507844153539 -45.30485566039684)"><path d="M0.02 0.64 C-0.12 -14.23, -0.72 -74.32, -0.85 -89.67 M-1.43 -0.08 C-1.75 -15.22, -1.87 -76.17, -1.91 -91.25" stroke="#000000" stroke-width="1" fill="none"></path></g><g transform="translate(1651.7283574897965 571.5918030887674) rotate(0 -0.9436507844153539 -45.30485566039684)"><path d="M9.48 -63.42 C7.16 -71.83, 1.08 -78.72, -3.37 -89.73 M8.72 -62.89 C4.6 -71.68, 1.66 -82.34, -1.61 -90.98" stroke="#000000" stroke-width="1" fill="none"></path></g><g transform="translate(1651.7283574897965 571.5918030887674) rotate(0 -0.9436507844153539 -45.30485566039684)"><path d="M-11.04 -63.36 C-7.18 -71.79, -7.08 -78.7, -3.37 -89.73 M-11.8 -62.84 C-9.2 -71.81, -5.43 -82.49, -1.61 -90.98" stroke="#000000" stroke-width="1" fill="none"></path></g></g><mask id="mask-HUCRt8xHm6exKW5LIJVGG"><rect x="0" y="0" fill="#fff" width="1752.3813685856599" height="762.3060937929474"></rect><rect x="1580.5919077890326" y="514.2346577366774" fill="#000" width="141.61988830566406" height="24" opacity="1"></rect></mask><g transform="translate(1580.5919077890328 514.2346577366775) rotate(0 70.19279891634835 12.052289691693147)"><text x="70.80994415283203" y="0" font-family="Virgil, Segoe UI Emoji" font-size="20px" fill="#000000" text-anchor="middle" style="white-space: pre;" direction="ltr">Attaches Role</text></g><g stroke-linecap="round" transform="translate(1993.6053049574657 901.932545891575) rotate(0 124.5 58)"><path d="M29 0 M29 0 C76.43 -0.02, 124.8 1.91, 220 0 M29 0 C90.29 0.82, 152.09 1.94, 220 0 M220 0 C239.31 -1.48, 248.03 9.05, 249 29 M220 0 C238.84 0.82, 248.99 7.75, 249 29 M249 29 C247.81 50.05, 248.8 68.84, 249 87 M249 29 C249.81 50.07, 248.38 73.09, 249 87 M249 87 C248.61 104.47, 240.33 117.6, 220 116 M249 87 C247.47 107.45, 240.32 114.4, 220 116 M220 116 C168.64 113.64, 113.63 115.36, 29 116 M220 116 C155.9 118.48, 92.49 117.75, 29 116 M29 116 C8.09 117.86, 0.19 105.47, 0 87 M29 116 C11.96 114.76, -0.42 106.78, 0 87 M0 87 C2.22 63.21, 2.16 39.6, 0 29 M0 87 C-0.56 70.31, -0.57 53.16, 0 29 M0 29 C-0.31 8.68, 8.2 0.01, 29 0 M0 29 C1.56 7.45, 11.16 -0.69, 29 0" stroke="#000000" stroke-width="1" fill="none"></path></g><g transform="translate(2036.6153833876415 923.932545891575) rotate(0 81.48992156982422 36)"><text x="81.48992156982422" y="-48" font-family="Virgil, Segoe UI Emoji" font-size="20px" fill="#000000" text-anchor="middle" style="white-space: pre;" direction="ltr">Policy Terraform</text><text x="81.48992156982422" y="-24" font-family="Virgil, Segoe UI Emoji" font-size="20px" fill="#000000" text-anchor="middle" style="white-space: pre;" direction="ltr">Your terraform</text><text x="81.48992156982422" y="0" font-family="Virgil, Segoe UI Emoji" font-size="20px" fill="#000000" text-anchor="middle" style="white-space: pre;" direction="ltr">Your GitHub</text></g><g stroke-linecap="round"><g transform="translate(1767.7711688028244 1079.858055473209) rotate(0 105.71581770216142 -57.838174007485975)"><path d="M0.23 1.16 C35.37 -18.28, 174.89 -97.24, 210.19 -116.83 M-1.1 0.72 C34.48 -18.58, 177.04 -96.45, 212.53 -115.79" stroke="#000000" stroke-width="1" fill="none"></path></g><g transform="translate(1767.7711688028244 1079.858055473209) rotate(0 105.71581770216142 -57.838174007485975)"><path d="M194.63 -94.46 C196.04 -96.98, 201.7 -102.58, 211.1 -116 M192.79 -94.17 C197.5 -98.76, 202.11 -104.83, 212.54 -115.11" stroke="#000000" stroke-width="1" fill="none"></path></g><g transform="translate(1767.7711688028244 1079.858055473209) rotate(0 105.71581770216142 -57.838174007485975)"><path d="M184.8 -112.47 C188.6 -110.58, 196.67 -111.75, 211.1 -116 M182.97 -112.19 C189.9 -112.29, 196.91 -113.96, 212.54 -115.11" stroke="#000000" stroke-width="1" fill="none"></path></g></g><mask></mask><g stroke-linecap="round"><g transform="translate(92.56995271357832 1619.6617039073988) rotate(0 384.0273550947612 419.5860834408584)"><path d="M-1.19 -1 C126.89 139.07, 640.78 699.9, 769.24 840.18 M0.39 1.08 C128.25 140.81, 640.28 698.67, 768.4 838.29" stroke="#000000" stroke-width="1" fill="none"></path></g></g><mask></mask><g stroke-linecap="round"><g transform="translate(145.2846352780111 2460.647355007036) rotate(0 346.3853921682784 -407.5227883521193)"><path d="M-0.39 -0.73 C115.07 -136.4, 577.52 -678.93, 693.16 -814.94 M1.61 1.51 C116.94 -134.41, 577.33 -680.3, 692.6 -816.55" stroke="#000000" stroke-width="1" fill="none"></path></g></g><mask></mask><g transform="translate(17.561651229145554 10) rotate(0 533.4183959960938 139.2)"><text x="0" y="-243.59999999999997" font-family="Virgil, Segoe UI Emoji" font-size="29.43911413269428px" fill="#000000" text-anchor="start" style="white-space: pre;" direction="ltr"></text><text x="0" y="-208.79999999999998" font-family="Virgil, Segoe UI Emoji" font-size="29.43911413269428px" fill="#000000" text-anchor="start" style="white-space: pre;" direction="ltr">EKS IAM Roles</text><text x="0" y="-174" font-family="Virgil, Segoe UI Emoji" font-size="29.43911413269428px" fill="#000000" text-anchor="start" style="white-space: pre;" direction="ltr">Once a Workload needs to be provisioned, The Platform Orchestrator</text><text x="0" y="-139.2" font-family="Virgil, Segoe UI Emoji" font-size="29.43911413269428px" fill="#000000" text-anchor="start" style="white-space: pre;" direction="ltr">will go over all the resource definitions that have the matching criteria, </text><text x="0" y="-104.39999999999998" font-family="Virgil, Segoe UI Emoji" font-size="29.43911413269428px" fill="#000000" text-anchor="start" style="white-space: pre;" direction="ltr">with the metadata held on them, it will go to GitHub, download your</text><text x="0" y="-69.6" font-family="Virgil, Segoe UI Emoji" font-size="29.43911413269428px" fill="#000000" text-anchor="start" style="white-space: pre;" direction="ltr">Custom Terraform run it, and provide values to the other resources.</text><text x="0" y="-34.80000000000001" font-family="Virgil, Segoe UI Emoji" font-size="29.43911413269428px" fill="#000000" text-anchor="start" style="white-space: pre;" direction="ltr"></text><text x="0" y="0" font-family="Virgil, Segoe UI Emoji" font-size="29.43911413269428px" fill="#000000" text-anchor="start" style="white-space: pre;" direction="ltr">Humanitec does not create Standalone Terraform Resources.</text></g><g transform="translate(259.58759183163113 1620.3561786203145) rotate(0 192.4098358154297 12)"><text x="0" y="0" font-family="Virgil, Segoe UI Emoji" font-size="20px" fill="#000000" text-anchor="start" style="white-space: pre;" direction="ltr">We do not recommend this architecture</text></g><g stroke-linecap="round" transform="translate(10.03330214069203 612.7418698538652) rotate(359.96708190495497 124.5 58)"><path d="M29 0 M29 0 C98.08 0.02, 167.2 3.18, 220 0 M29 0 C83.41 -2.33, 139.59 -1.38, 220 0 M220 0 C237.93 -1.71, 247.25 8.92, 249 29 M220 0 C237.52 1.08, 250.26 7.62, 249 29 M249 29 C249.53 44.17, 250.68 61.95, 249 87 M249 29 C248.37 43.98, 249.2 58.22, 249 87 M249 87 C250.13 107.28, 237.6 117.97, 220 116 M249 87 C248.52 105.38, 240.66 117.94, 220 116 M220 116 C165.65 113.74, 113.5 115.35, 29 116 M220 116 C173.39 114.84, 126.97 116.53, 29 116 M29 116 C8.06 114.89, -1.67 107.84, 0 87 M29 116 C11.77 116.2, 0.89 106.99, 0 87 M0 87 C-1.51 65.37, 1.16 48.7, 0 29 M0 87 C-0.59 69.27, -0.38 49.74, 0 29 M0 29 C1.07 9.53, 7.73 -1.91, 29 0 M0 29 C1.05 11.28, 8.65 -1.96, 29 0" stroke="#000000" stroke-width="1" fill="none"></path></g><g transform="translate(33.653388810613905 634.7418698538652) rotate(359.96708190495497 100.87991333007812 36)"><text x="100.87991333007812" y="-48" font-family="Virgil, Segoe UI Emoji" font-size="20px" fill="#000000" text-anchor="middle" style="white-space: pre;" direction="ltr">Humanitec Resource </text><text x="100.87991333007812" y="-24" font-family="Virgil, Segoe UI Emoji" font-size="20px" fill="#000000" text-anchor="middle" style="white-space: pre;" direction="ltr">Definition</text><text x="100.87991333007812" y="0" font-family="Virgil, Segoe UI Emoji" font-size="20px" fill="#000000" text-anchor="middle" style="white-space: pre;" direction="ltr">Namespace</text></g><g stroke-linecap="round"><g transform="translate(126.13795219858875 607.2582767418035) rotate(0 93.96944081098842 -78.90774222572341)"><path d="M0.3 0.15 C31.84 -26.3, 157.71 -131.81, 188.93 -157.96 M-0.99 -0.82 C30.43 -27.13, 156.35 -130.13, 188.19 -156.42" stroke="#000000" stroke-width="1" fill="none"></path></g><g transform="translate(126.13795219858875 607.2582767418035) rotate(0 93.96944081098842 -78.90774222572341)"><path d="M173.17 -129.95 C177.05 -139.37, 183.25 -146.23, 190.13 -155.3 M172.96 -129.98 C175.56 -134.97, 179.62 -140.91, 187.2 -157" stroke="#000000" stroke-width="1" fill="none"></path></g><g transform="translate(126.13795219858875 607.2582767418035) rotate(0 93.96944081098842 -78.90774222572341)"><path d="M160.14 -145.8 C167.75 -150.84, 177.58 -153.28, 190.13 -155.3 M159.93 -145.83 C165.17 -147.49, 171.89 -150.21, 187.2 -157" stroke="#000000" stroke-width="1" fill="none"></path></g></g><mask></mask><g stroke-linecap="round" transform="translate(1240.3706840036043 581.940997696652) rotate(359.96708190495497 124.5 58)"><path d="M29 0 M29 0 C99.72 0.08, 170.87 2.08, 220 0 M29 0 C92.06 -1.44, 154.15 -0.83, 220 0 M220 0 C240.88 -1.72, 249.41 10.7, 249 29 M220 0 C240.94 1.95, 247.55 9.82, 249 29 M249 29 C249.33 48.82, 249.07 66.08, 249 87 M249 29 C248.78 48.65, 250.22 68.52, 249 87 M249 87 C247.7 106.05, 237.93 117.58, 220 116 M249 87 C250.35 106.32, 238.15 113.86, 220 116 M220 116 C151.41 117.28, 85.21 117.31, 29 116 M220 116 C164.37 117.61, 107.91 117.59, 29 116 M29 116 C9.29 115.02, -1.55 104.99, 0 87 M29 116 C10.77 114.76, 0.26 106.43, 0 87 M0 87 C1.55 68.85, 0.94 49.51, 0 29 M0 87 C-0.1 72.89, 0.28 57.9, 0 29 M0 29 C0.19 11.35, 10 1.91, 29 0 M0 29 C-1.9 9.12, 7.45 1.89, 29 0" stroke="#000000" stroke-width="1" fill="none"></path></g><g transform="translate(1263.9907706735262 603.940997696652) rotate(359.96708190495497 100.87991333007812 36)"><text x="100.87991333007812" y="-48" font-family="Virgil, Segoe UI Emoji" font-size="20px" fill="#000000" text-anchor="middle" style="white-space: pre;" direction="ltr">Humanitec Resource </text><text x="100.87991333007812" y="-24" font-family="Virgil, Segoe UI Emoji" font-size="20px" fill="#000000" text-anchor="middle" style="white-space: pre;" direction="ltr">Definition</text><text x="100.87991333007812" y="0" font-family="Virgil, Segoe UI Emoji" font-size="20px" fill="#000000" text-anchor="middle" style="white-space: pre;" direction="ltr">Namespace</text></g><g stroke-linecap="round"><g transform="translate(1373.9035582322535 589.3768726565183) rotate(0 76.27438247255418 -82.06442316300165)"><path d="M0.81 -1.13 C26 -28.82, 125.58 -137.99, 150.52 -165.02 M-0.23 0.89 C25.4 -26.19, 127.27 -136.38, 152.78 -164.07" stroke="#000000" stroke-width="1" fill="none"></path></g><g transform="translate(1373.9035582322535 589.3768726565183) rotate(0 76.27438247255418 -82.06442316300165)"><path d="M139.3 -137.84 C141.89 -144.91, 147.67 -148.52, 150.96 -162.34 M141.92 -137.01 C146.08 -145.9, 149.26 -156.3, 153.33 -163.4" stroke="#000000" stroke-width="1" fill="none"></path></g><g transform="translate(1373.9035582322535 589.3768726565183) rotate(0 76.27438247255418 -82.06442316300165)"><path d="M124.23 -151.76 C130.65 -155.51, 140.14 -155.69, 150.96 -162.34 M126.84 -150.93 C136.49 -154.68, 145.1 -160.08, 153.33 -163.4" stroke="#000000" stroke-width="1" fill="none"></path></g></g><mask></mask><g transform="translate(1333.288284398615 102.87628971731135) rotate(0 377.15838623046875 36)"><text x="0" y="-36" font-family="Virgil, Segoe UI Emoji" font-size="30.94482543773705px" fill="#000000" text-anchor="start" style="white-space: pre;" direction="ltr">Bringing existing Resources (from other accounts)</text><text x="0" y="0" font-family="Virgil, Segoe UI Emoji" font-size="30.94482543773705px" fill="#000000" text-anchor="start" style="white-space: pre;" direction="ltr">You will need to use Static Resource Driver</text></g></svg>