<svg version="1.1" xmlns="http://www.w3.org/2000/svg" viewBox="0 0 1042.5909624486073 645.3063305151495" width="3127.772887345822" height="1935.9189915454485">
  <!-- svg-source:excalidraw -->
  
  <defs>
    <style class="style-fonts">
      @font-face {
        font-family: "Virgil";
        src: url("https://excalidraw.com/Virgil.woff2");
      }
      @font-face {
        font-family: "Cascadia";
        src: url("https://excalidraw.com/Cascadia.woff2");
      }
      @font-face {
        font-family: "Assistant";
        src: url("https://excalidraw.com/Assistant-Regular.woff2");
      }
    </style>
    
  </defs>
  <rect x="0" y="0" width="1042.5909624486073" height="645.3063305151495" fill="#ffffff"></rect><g transform="translate(55.92938613530089 10) rotate(0 40.94995880126953 12.5)"><text x="0" y="0" font-family="Virgil, Segoe UI Emoji" font-size="20px" fill="#1e1e1e" text-anchor="start" style="white-space: pre;" direction="ltr" dominant-baseline="text-before-edge">Outcome</text></g><g stroke-linecap="round" transform="translate(10 10.403986765149511) rotate(0 511.29548122430367 312.451171875)"><path d="M32 0 C259.44 -2.22, 487.34 -1.77, 990.59 0 M32 0 C372.5 -3.28, 713.47 -2.67, 990.59 0 M990.59 0 C1011.56 -0.37, 1020.75 10.14, 1022.59 32 M990.59 0 C1013.84 -0.27, 1020.73 12.9, 1022.59 32 M1022.59 32 C1022.46 159.85, 1022.71 289.98, 1022.59 592.9 M1022.59 32 C1023.46 189.09, 1024.01 345.28, 1022.59 592.9 M1022.59 592.9 C1022.63 614.83, 1011.1 623.4, 990.59 624.9 M1022.59 592.9 C1022 616.02, 1010.23 626.73, 990.59 624.9 M990.59 624.9 C682.01 627.58, 371.59 627.51, 32 624.9 M990.59 624.9 C704.21 627.32, 417.75 627.6, 32 624.9 M32 624.9 C8.88 625.42, 1.18 615.47, 0 592.9 M32 624.9 C10.59 623.3, -1.25 615.8, 0 592.9 M0 592.9 C2.31 379.22, 1.25 165.36, 0 32 M0 592.9 C-0.12 456.7, -0.06 321, 0 32 M0 32 C-0.16 8.72, 9.98 -1.39, 32 0 M0 32 C0.18 12.53, 9.72 -0.93, 32 0" stroke="#1e1e1e" stroke-width="2" fill="none"></path></g><g stroke-linecap="round" transform="translate(108.48201700853144 508.4093604040222) rotate(0 41.857421875 34.94140625)"><path d="M52.8 0.55 C60.25 1.9, 69 8.67, 74.25 14.1 C79.5 19.52, 83.8 26.29, 84.27 33.1 C84.75 39.91, 81.82 49.06, 77.08 54.95 C72.34 60.83, 63.54 66, 55.83 68.41 C48.12 70.82, 38.5 71.53, 30.82 69.4 C23.14 67.28, 15.01 61.29, 9.75 55.66 C4.49 50.03, -0.28 42.33, -0.74 35.62 C-1.21 28.91, 2.25 20.9, 6.96 15.39 C11.66 9.87, 19.5 4.7, 27.47 2.52 C35.44 0.35, 49.96 2.14, 54.78 2.33 C59.6 2.52, 56.56 3.08, 56.4 3.65 M20.85 5.4 C27.22 1.63, 39.5 -1.05, 47.69 -0.44 C55.88 0.18, 64.05 4.13, 69.98 9.12 C75.91 14.11, 81.87 22.88, 83.28 29.5 C84.68 36.12, 81.89 42.98, 78.43 48.85 C74.97 54.72, 69.69 61.02, 62.52 64.7 C55.34 68.38, 43.77 71.9, 35.38 70.95 C26.98 70, 18.1 63.96, 12.16 58.99 C6.22 54.03, 1.19 47.96, -0.29 41.16 C-1.76 34.37, -0.57 24.17, 3.31 18.21 C7.2 12.25, 20.04 7.5, 23.04 5.38 C26.04 3.27, 21.25 5.04, 21.31 5.53" stroke="#1e1e1e" stroke-width="2" fill="none"></path></g><g transform="translate(137.3517802724789 530.643461350453) rotate(0 12.889991760253906 12.5)"><text x="12.889991760253906" y="0" font-family="Virgil, Segoe UI Emoji" font-size="20px" fill="#1e1e1e" text-anchor="middle" style="white-space: pre;" direction="ltr" dominant-baseline="text-before-edge">S3</text></g><g stroke-linecap="round" transform="translate(203.18160029430862 173.57069722542974) rotate(0 63.205078125 52.6953125)"><path d="M80 13.25 C89.69 20.87, 100.56 33.22, 110.41 39.75 M80 13.25 C91.16 22.28, 102.24 32.61, 110.41 39.75 M110.41 39.75 C128.17 54.81, 124.88 51.46, 110.41 66.25 M110.41 39.75 C125.25 52.49, 126.44 52.75, 110.41 66.25 M110.41 66.25 C98.1 76.15, 88.72 85.18, 80 92.14 M110.41 66.25 C103.55 72.61, 98.3 76.44, 80 92.14 M80 92.14 C62.67 104.42, 64.25 106.15, 48 92.14 M80 92.14 C62.44 103.16, 65.63 103.68, 48 92.14 M48 92.14 C38.02 84.06, 31.36 77.26, 16 66.25 M48 92.14 C40.28 87.58, 33.93 82.4, 16 66.25 M16 66.25 C1.2 51.12, -1.53 54.82, 16 39.75 M16 66.25 C0.58 51.29, -0.87 52.06, 16 39.75 M16 39.75 C24.09 35.41, 30.45 28.65, 48 13.25 M16 39.75 C23.62 33.85, 29.76 27.97, 48 13.25 M48 13.25 C62.24 -0.24, 64.99 1.1, 80 13.25 M48 13.25 C63.92 -1.55, 64.95 1.49, 80 13.25" stroke="#1e1e1e" stroke-width="2" fill="none"></path></g><g transform="translate(245.86415644665237 213.91835347542974) rotate(0 20.41998291015625 12.5)"><text x="20.41998291015625" y="0" font-family="Virgil, Segoe UI Emoji" font-size="20px" fill="#1e1e1e" text-anchor="middle" style="white-space: pre;" direction="ltr" dominant-baseline="text-before-edge">Role</text></g><g stroke-linecap="round" transform="translate(80.28706904430851 334.27382222542974) rotate(0 71.998046875 60)"><path d="M90 15.25 C98.83 20.36, 106.62 29.2, 126 45.75 M90 15.25 C100.79 24.19, 108.85 30.75, 126 45.75 M126 45.75 C142.99 60.55, 144.03 60.78, 126 76.25 M126 45.75 C144.98 59.3, 144.95 59.05, 126 76.25 M126 76.25 C111.55 88.17, 102.54 94.2, 90 104.75 M126 76.25 C111.3 86.67, 98.08 98.63, 90 104.75 M90 104.75 C70.65 118.06, 73.42 118.51, 54 104.75 M90 104.75 C71.09 122.17, 71.12 118.39, 54 104.75 M54 104.75 C43.53 98.73, 38.5 89.09, 18 76.25 M54 104.75 C41.92 93.93, 27.7 85.61, 18 76.25 M18 76.25 C0.51 59.52, -0.76 60.18, 18 45.75 M18 76.25 C-2.1 59.25, 2.15 62.4, 18 45.75 M18 45.75 C29.52 33.28, 44.22 24.45, 54 15.25 M18 45.75 C26.24 38.12, 36.82 31, 54 15.25 M54 15.25 C71.93 -1.35, 72.83 1.29, 90 15.25 M54 15.25 C73.78 1.22, 73.76 -0.38, 90 15.25" stroke="#1e1e1e" stroke-width="2" fill="none"></path></g><g transform="translate(125.60612269421085 369.27382222542974) rotate(0 26.679969787597656 25)"><text x="26.679969787597656" y="0" font-family="Virgil, Segoe UI Emoji" font-size="20px" fill="#1e1e1e" text-anchor="middle" style="white-space: pre;" direction="ltr" dominant-baseline="text-before-edge">Policy</text><text x="26.679969787597656" y="25" font-family="Virgil, Segoe UI Emoji" font-size="20px" fill="#1e1e1e" text-anchor="middle" style="white-space: pre;" direction="ltr" dominant-baseline="text-before-edge">S3</text></g><g stroke-linecap="round"><g transform="translate(334.7831627943086 129.98475972542974) rotate(0 -31.9609375 23.65234375)"><path d="M0.52 -0.36 C-9.87 7.52, -52.61 39.82, -63.17 47.95 M-0.66 -1.6 C-11.08 5.88, -53.33 38.13, -63.73 46.17" stroke="#1e1e1e" stroke-width="2" fill="none"></path></g></g><mask></mask><g stroke-linecap="round"><g transform="translate(268.4472252943086 275.67616597542974) rotate(0 -58.734375 33.009765625)"><path d="M0.75 0.64 C-18.74 11.89, -96.55 56.36, -116.41 67.11 M-0.32 -0.06 C-19.92 10.9, -97.53 54.56, -116.8 65.55" stroke="#1e1e1e" stroke-width="2" fill="none"></path></g></g><mask></mask><g stroke-linecap="round"><g transform="translate(153.7206627943085 448.35585347542974) rotate(0 -1.001953125 30.154296875)"><path d="M1.06 1.09 C0.45 10.88, -2.31 49.56, -2.92 59.39 M0.16 0.61 C-0.15 10.47, -0.05 50.34, -0.69 60.44" stroke="#1e1e1e" stroke-width="2" fill="none"></path></g></g><mask></mask><g stroke-linecap="round" transform="translate(243.91052461613765 505.81095700513606) rotate(0 41.857421875 34.94140625)"><path d="M31.33 1.53 C38.65 -0.48, 49.02 0.35, 56.52 2.87 C64.02 5.39, 71.88 10.86, 76.35 16.66 C80.81 22.46, 83.85 30.74, 83.31 37.66 C82.78 44.57, 78.19 53.13, 73.14 58.16 C68.09 63.19, 60.63 66.3, 53 67.84 C45.37 69.38, 35.18 69.87, 27.35 67.39 C19.52 64.92, 10.62 58.76, 6 53 C1.37 47.25, -1.07 39.71, -0.4 32.88 C0.26 26.04, 4.53 17.23, 9.98 12 C15.43 6.76, 28.21 3.33, 32.3 1.45 C36.39 -0.42, 34.05 0.36, 34.51 0.75 M26.59 0.74 C34 -1.74, 46.35 0.42, 54.16 2.67 C61.98 4.93, 68.71 8.9, 73.49 14.28 C78.27 19.65, 82.18 28.45, 82.84 34.92 C83.5 41.38, 82.1 47.36, 77.46 53.06 C72.83 58.77, 62.82 66.75, 55.03 69.14 C47.23 71.53, 38.49 69.63, 30.71 67.42 C22.92 65.2, 13.65 61.24, 8.31 55.84 C2.97 50.45, -1.39 41.61, -1.35 35.02 C-1.31 28.43, 3.55 21.69, 8.55 16.32 C13.55 10.94, 25.41 5.27, 28.65 2.78 C31.89 0.3, 28.09 1.04, 28.01 1.4" stroke="#1e1e1e" stroke-width="2" fill="none"></path></g><g transform="translate(266.4602958146554 528.0450579515668) rotate(0 19.209983825683594 12.5)"><text x="19.209983825683594" y="0" font-family="Virgil, Segoe UI Emoji" font-size="20px" fill="#1e1e1e" text-anchor="middle" style="white-space: pre;" direction="ltr" dominant-baseline="text-before-edge">SQS</text></g><g stroke-linecap="round"><g transform="translate(279.113801666473 506.90133580408065) rotate(0 27.655598590217664 -26.605525901939927)"><path d="M0.02 -0.13 C9.42 -9.1, 46.53 -45.08, 55.83 -54.1 M-1.43 -1.24 C7.91 -10.06, 45.69 -44.33, 55.15 -53.03" stroke="#1e1e1e" stroke-width="2" fill="none"></path></g></g><mask></mask><g stroke-linecap="round" transform="translate(267.6717887149374 340.1380930188602) rotate(0 71.998046875 60)"><path d="M90 15.25 C99.34 25.12, 109.98 34.38, 126 45.75 M90 15.25 C100.75 24.49, 108.49 32.83, 126 45.75 M126 45.75 C143.92 59.96, 142.66 60.03, 126 76.25 M126 45.75 C144.28 61.87, 142.44 58.77, 126 76.25 M126 76.25 C114.31 85.92, 97.68 96.04, 90 104.75 M126 76.25 C115.03 85.75, 102.32 94.38, 90 104.75 M90 104.75 C70.87 121.6, 73.2 118.12, 54 104.75 M90 104.75 C70.24 122.09, 72.58 118.29, 54 104.75 M54 104.75 C43.15 98.81, 36.46 90.96, 18 76.25 M54 104.75 C41.04 94.3, 29.92 84.32, 18 76.25 M18 76.25 C0.47 59.44, -1.76 60.76, 18 45.75 M18 76.25 C1.14 62.26, -0.08 59.45, 18 45.75 M18 45.75 C31.15 36.59, 42.05 23.92, 54 15.25 M18 45.75 C25.98 37.81, 36.7 30.2, 54 15.25 M54 15.25 C73.96 -0.68, 70.99 -0.42, 90 15.25 M54 15.25 C73.73 -0.6, 71.51 0.14, 90 15.25" stroke="#1e1e1e" stroke-width="2" fill="none"></path></g><g transform="translate(312.99084236483975 375.1380930188602) rotate(0 26.679969787597656 25)"><text x="26.679969787597656" y="0" font-family="Virgil, Segoe UI Emoji" font-size="20px" fill="#1e1e1e" text-anchor="middle" style="white-space: pre;" direction="ltr" dominant-baseline="text-before-edge">Policy</text><text x="26.679969787597656" y="25" font-family="Virgil, Segoe UI Emoji" font-size="20px" fill="#1e1e1e" text-anchor="middle" style="white-space: pre;" direction="ltr" dominant-baseline="text-before-edge">SQS</text></g><g stroke-linecap="round"><g transform="translate(261.8594493885636 277.4067025526397) rotate(0 40.00224272501907 33.85102745105587)"><path d="M0.54 -0.39 C13.89 10.87, 67.2 55.04, 80.64 66.53 M-0.64 -1.64 C12.57 9.81, 66.42 56.07, 80.02 67.46" stroke="#1e1e1e" stroke-width="2" fill="none"></path></g></g><mask></mask><g stroke-linecap="round" transform="translate(518.8172633972804 512.8528258849447) rotate(0 41.857421875 34.94140625)"><path d="M44.1 0.5 C52.1 0.53, 62.46 3.98, 68.93 8.25 C75.39 12.52, 80.88 19.46, 82.87 26.12 C84.86 32.78, 84.04 41.74, 80.85 48.21 C77.67 54.68, 70.74 61.41, 63.75 64.95 C56.75 68.48, 47.1 70.06, 38.89 69.41 C30.68 68.77, 20.85 65.35, 14.48 61.09 C8.1 56.83, 2.6 50.35, 0.64 43.87 C-1.33 37.38, -0.52 28.56, 2.67 22.17 C5.85 15.79, 11.37 8.91, 19.75 5.57 C28.14 2.23, 45.88 2.09, 52.96 2.13 C60.04 2.17, 62.41 5.23, 62.22 5.81 M54.36 2.03 C62.2 3.25, 70.57 6.58, 75.51 11.88 C80.45 17.18, 83.6 26.88, 84 33.83 C84.41 40.77, 82.41 47.93, 77.94 53.53 C73.46 59.12, 65.13 64.86, 57.15 67.38 C49.17 69.9, 37.99 70.46, 30.05 68.67 C22.12 66.88, 14.7 61.8, 9.54 56.65 C4.39 51.51, -0.39 44.54, -0.87 37.79 C-1.36 31.04, 2.02 21.86, 6.64 16.15 C11.25 10.44, 19.05 5.79, 26.81 3.54 C34.57 1.29, 48.95 3.09, 53.18 2.63 C57.41 2.17, 52.4 0.42, 52.19 0.78" stroke="#1e1e1e" stroke-width="2" fill="none"></path></g><g transform="translate(547.6870266612278 535.0869268313754) rotate(0 12.889991760253906 12.5)"><text x="12.889991760253906" y="0" font-family="Virgil, Segoe UI Emoji" font-size="20px" fill="#1e1e1e" text-anchor="middle" style="white-space: pre;" direction="ltr" dominant-baseline="text-before-edge">S3</text></g><g stroke-linecap="round" transform="translate(613.5168466830573 178.01416270635218) rotate(0 63.205078125 52.6953125)"><path d="M80 13.25 C89.01 22.51, 99.92 30.61, 110.41 39.75 M80 13.25 C91.35 21.87, 102.1 31.39, 110.41 39.75 M110.41 39.75 C125.59 51.23, 124.61 51.52, 110.41 66.25 M110.41 39.75 C126.51 52.57, 126.2 54.21, 110.41 66.25 M110.41 66.25 C102.85 76.31, 91.29 84, 80 92.14 M110.41 66.25 C100.31 75.74, 89.28 83.5, 80 92.14 M80 92.14 C64.42 105.73, 65.71 104.29, 48 92.14 M80 92.14 C65.24 104.86, 63.32 105.55, 48 92.14 M48 92.14 C39.17 82.66, 27.24 73.74, 16 66.25 M48 92.14 C34.92 81.47, 22.8 72.2, 16 66.25 M16 66.25 C-1.28 52.56, -0.81 51.62, 16 39.75 M16 66.25 C-1.98 51.27, 1.41 54.04, 16 39.75 M16 39.75 C25.4 32.87, 35.54 22.92, 48 13.25 M16 39.75 C22.05 33.59, 29.42 27.67, 48 13.25 M48 13.25 C64.11 -0.09, 64.46 0.2, 80 13.25 M48 13.25 C64.86 2.28, 65.27 0.37, 80 13.25" stroke="#1e1e1e" stroke-width="2" fill="none"></path></g><g transform="translate(656.1994028354011 218.36181895635218) rotate(0 20.41998291015625 12.5)"><text x="20.41998291015625" y="0" font-family="Virgil, Segoe UI Emoji" font-size="20px" fill="#1e1e1e" text-anchor="middle" style="white-space: pre;" direction="ltr" dominant-baseline="text-before-edge">Role</text></g><g stroke-linecap="round" transform="translate(490.62231543305734 338.7172877063522) rotate(0 71.998046875 60)"><path d="M90 15.25 C103.62 25.73, 114.93 37.29, 126 45.75 M90 15.25 C97.9 21.46, 105.54 28.5, 126 45.75 M126 45.75 C144.08 60.63, 143.82 62.05, 126 76.25 M126 45.75 C144.06 60.27, 145.85 62.99, 126 76.25 M126 76.25 C112.64 87.46, 95.98 100.84, 90 104.75 M126 76.25 C113.84 85.99, 101.96 95.18, 90 104.75 M90 104.75 C73.08 119.54, 71.41 120.13, 54 104.75 M90 104.75 C72.86 120.12, 70.61 122.27, 54 104.75 M54 104.75 C45.92 96.81, 36.04 88.03, 18 76.25 M54 104.75 C45.48 98.29, 37.8 91.56, 18 76.25 M18 76.25 C-1.73 59.5, 1.22 61.9, 18 45.75 M18 76.25 C-0.03 62.87, -0.42 61.06, 18 45.75 M18 45.75 C28.84 36.47, 43.43 23.09, 54 15.25 M18 45.75 C27.88 37.64, 37.76 29.57, 54 15.25 M54 15.25 C72.74 1.98, 73.1 0.32, 90 15.25 M54 15.25 C71.84 1.02, 72.01 1.6, 90 15.25" stroke="#1e1e1e" stroke-width="2" fill="none"></path></g><g transform="translate(535.9413690829597 373.7172877063522) rotate(0 26.679969787597656 25)"><text x="26.679969787597656" y="0" font-family="Virgil, Segoe UI Emoji" font-size="20px" fill="#1e1e1e" text-anchor="middle" style="white-space: pre;" direction="ltr" dominant-baseline="text-before-edge">Policy</text><text x="26.679969787597656" y="25" font-family="Virgil, Segoe UI Emoji" font-size="20px" fill="#1e1e1e" text-anchor="middle" style="white-space: pre;" direction="ltr" dominant-baseline="text-before-edge">S3</text></g><g stroke-linecap="round"><g transform="translate(745.1184091830573 134.42822520635218) rotate(0 -31.9609375 23.65234375)"><path d="M0.71 -0.89 C-9.83 6.88, -52.34 38.76, -63.19 46.61 M-0.37 1.26 C-11.02 9.17, -52.91 40.16, -63.75 47.79" stroke="#1e1e1e" stroke-width="2" fill="none"></path></g></g><mask></mask><g stroke-linecap="round"><g transform="translate(678.7824716830573 280.1196314563522) rotate(0 -58.734375 33.009765625)"><path d="M0.73 -0.69 C-19.05 10.28, -98.08 53.99, -117.96 64.96 M-0.34 1.56 C-20.39 12.72, -99.86 55.2, -119.17 65.94" stroke="#1e1e1e" stroke-width="2" fill="none"></path></g></g><mask></mask><g stroke-linecap="round"><g transform="translate(564.0559091830573 452.7993189563522) rotate(0 -1.001953125 30.154296875)"><path d="M-0.49 -1.06 C-1.13 8.96, -2.84 49.23, -3.09 59.42 M1.45 1 C1.1 11.2, -0.25 50.44, -0.94 60.49" stroke="#1e1e1e" stroke-width="2" fill="none"></path></g></g><mask></mask><g stroke-linecap="round" transform="translate(654.2457710048866 510.2544224860585) rotate(0 41.857421875 34.94140625)"><path d="M43.26 0.03 C51.04 -0.15, 60.26 3.61, 66.85 7.91 C73.44 12.21, 80.42 19.26, 82.79 25.83 C85.16 32.4, 83.82 41.09, 81.07 47.35 C78.32 53.61, 73.08 59.51, 66.3 63.39 C59.52 67.27, 48.6 70.65, 40.39 70.63 C32.17 70.62, 23.62 67.52, 17.03 63.29 C10.44 59.06, 3.25 51.75, 0.83 45.25 C-1.59 38.76, -0.27 30.72, 2.5 24.3 C5.26 17.89, 10.43 10.88, 17.41 6.79 C24.4 2.7, 39.54 0.7, 44.38 -0.22 C49.22 -1.14, 46.45 0.75, 46.45 1.28 M61.16 5.57 C68.35 8.35, 76.03 15.38, 79.54 21.12 C83.06 26.86, 83.73 33.47, 82.24 40 C80.74 46.54, 76.55 55.47, 70.59 60.34 C64.64 65.21, 54.69 68.52, 46.49 69.24 C38.29 69.96, 28.67 68.05, 21.39 64.67 C14.12 61.28, 6.14 54.84, 2.84 48.95 C-0.46 43.07, -0.09 35.7, 1.6 29.35 C3.28 23.01, 7.2 15.73, 12.94 10.89 C18.67 6.06, 27.74 1.39, 36 0.35 C44.25 -0.69, 58.36 4.11, 62.45 4.65 C66.54 5.19, 60.84 3.09, 60.53 3.57" stroke="#1e1e1e" stroke-width="2" fill="none"></path></g><g transform="translate(676.7955422034045 532.4885234324893) rotate(0 19.209983825683594 12.5)"><text x="19.209983825683594" y="0" font-family="Virgil, Segoe UI Emoji" font-size="20px" fill="#1e1e1e" text-anchor="middle" style="white-space: pre;" direction="ltr" dominant-baseline="text-before-edge">SQS</text></g><g stroke-linecap="round"><g transform="translate(689.449048055222 511.3448012850031) rotate(0 27.655598590217664 -26.605525901939927)"><path d="M-0.11 0.63 C9.11 -8.26, 45.95 -44.79, 55.34 -53.59 M-1.62 -0.08 C7.43 -8.79, 44.81 -43.27, 54.41 -52.25" stroke="#1e1e1e" stroke-width="2" fill="none"></path></g></g><mask></mask><g stroke-linecap="round" transform="translate(678.0070351036861 344.58155849978266) rotate(0 71.998046875 60)"><path d="M90 15.25 C100 25.72, 112.84 34.97, 126 45.75 M90 15.25 C99.7 22.64, 110.37 31.91, 126 45.75 M126 45.75 C145.03 59.09, 144.42 61.34, 126 76.25 M126 45.75 C145.96 59.73, 145.23 60.47, 126 76.25 M126 76.25 C116.39 82.89, 108.52 91.24, 90 104.75 M126 76.25 C113.57 87.2, 100.76 95.25, 90 104.75 M90 104.75 C71.77 120.17, 70.72 119.56, 54 104.75 M90 104.75 C71.07 118.42, 70.02 118.27, 54 104.75 M54 104.75 C42.5 94.09, 27.92 85.13, 18 76.25 M54 104.75 C42.81 95.22, 29.52 85.28, 18 76.25 M18 76.25 C-0.8 60.12, 0.11 60.91, 18 45.75 M18 76.25 C0.53 61.23, 0.86 63.28, 18 45.75 M18 45.75 C31.62 34.95, 44.91 23.84, 54 15.25 M18 45.75 C31.75 35.39, 44.95 24.31, 54 15.25 M54 15.25 C72.52 -1.71, 72.55 0.25, 90 15.25 M54 15.25 C71.7 -1.77, 72.55 1.5, 90 15.25" stroke="#1e1e1e" stroke-width="2" fill="none"></path></g><g transform="translate(723.3260887535885 379.58155849978266) rotate(0 26.679969787597656 25)"><text x="26.679969787597656" y="0" font-family="Virgil, Segoe UI Emoji" font-size="20px" fill="#1e1e1e" text-anchor="middle" style="white-space: pre;" direction="ltr" dominant-baseline="text-before-edge">Policy</text><text x="26.679969787597656" y="25" font-family="Virgil, Segoe UI Emoji" font-size="20px" fill="#1e1e1e" text-anchor="middle" style="white-space: pre;" direction="ltr" dominant-baseline="text-before-edge">SQS</text></g><g stroke-linecap="round"><g transform="translate(672.1946957773125 281.8501680335621) rotate(0 40.00224272501907 33.85102745105587)"><path d="M1.19 -0.38 C14.55 10.84, 68.02 57.13, 81.11 68.36 M0.35 -1.62 C13.56 9.77, 67.66 54.99, 80.74 66.59" stroke="#1e1e1e" stroke-width="2" fill="none"></path></g></g><mask></mask><g stroke-linecap="round" transform="translate(285.3024067449702 32.02264597621388) rotate(0 64.4609375 48.591796875)"><path d="M24.3 0 C42.27 -0.24, 59.03 1.37, 104.63 0 M24.3 0 C39.99 -1.2, 56.33 -0.35, 104.63 0 M104.63 0 C119.26 -0.91, 130.9 8.04, 128.92 24.3 M104.63 0 C121.44 -0.68, 127.98 7.62, 128.92 24.3 M128.92 24.3 C130.36 35.5, 127.39 42.96, 128.92 72.89 M128.92 24.3 C128.95 38.37, 129.18 50.45, 128.92 72.89 M128.92 72.89 C128.15 89.7, 122.01 95.64, 104.63 97.18 M128.92 72.89 C127.35 88.9, 121.94 95.16, 104.63 97.18 M104.63 97.18 C76.58 95.98, 47.21 98.17, 24.3 97.18 M104.63 97.18 C78.54 95.79, 50.84 96.99, 24.3 97.18 M24.3 97.18 C8.2 95.55, -0.22 88.44, 0 72.89 M24.3 97.18 C6.78 95.59, 0.68 88.52, 0 72.89 M0 72.89 C-2.12 58.22, 0.1 40.05, 0 24.3 M0 72.89 C0.38 61.69, 0.27 51.31, 0 24.3 M0 24.3 C-1.24 7.56, 8.04 -0.96, 24.3 0 M0 24.3 C0.44 9.13, 6.61 0.91, 24.3 0" stroke="#1e1e1e" stroke-width="2" fill="none"></path></g><g transform="translate(310.10337110043895 68.11444285121388) rotate(0 39.65997314453125 12.5)"><text x="39.65997314453125" y="0" font-family="Virgil, Segoe UI Emoji" font-size="20px" fill="#1e1e1e" text-anchor="middle" style="white-space: pre;" direction="ltr" dominant-baseline="text-before-edge">Backend</text></g><g stroke-linecap="round" transform="translate(692.0895127870126 38.03569379119426) rotate(0 64.4609375 48.591796875)"><path d="M24.3 0 C44.71 -1.08, 68.58 0.97, 104.63 0 M24.3 0 C40.79 -0.54, 59.47 0.08, 104.63 0 M104.63 0 C119.48 -1.14, 130.03 7.06, 128.92 24.3 M104.63 0 C120.37 -0.61, 127.28 9.37, 128.92 24.3 M128.92 24.3 C131.05 44.47, 130.54 60.06, 128.92 72.89 M128.92 24.3 C128.54 37.5, 129.56 52.62, 128.92 72.89 M128.92 72.89 C129.36 88.94, 118.98 98.23, 104.63 97.18 M128.92 72.89 C130.64 89.59, 119.96 95.06, 104.63 97.18 M104.63 97.18 C83.12 99.06, 58.32 96.49, 24.3 97.18 M104.63 97.18 C84.13 96.63, 62.44 96.76, 24.3 97.18 M24.3 97.18 C9.53 95.47, -1.92 89.43, 0 72.89 M24.3 97.18 C9.69 97.43, -2.29 88.95, 0 72.89 M0 72.89 C0.83 61.99, 0.09 51.12, 0 24.3 M0 72.89 C0.58 58.41, 0.41 43.67, 0 24.3 M0 24.3 C-0.56 7.23, 7.28 -0.88, 24.3 0 M0 24.3 C-1.65 10.18, 7.66 1.82, 24.3 0" stroke="#1e1e1e" stroke-width="2" fill="none"></path></g><g transform="translate(714.8204850770517 74.12749066619426) rotate(0 41.72996520996094 12.5)"><text x="41.72996520996094" y="0" font-family="Virgil, Segoe UI Emoji" font-size="20px" fill="#1e1e1e" text-anchor="middle" style="white-space: pre;" direction="ltr" dominant-baseline="text-before-edge">Frontend</text></g></svg>