<svg version="1.1" xmlns="http://www.w3.org/2000/svg" viewBox="0 0 1450.2535911563054 847.8482333237089" width="4350.760773468916" height="2543.5446999711266">
  <!-- svg-source:excalidraw -->
  
  <defs>
    <style class="style-fonts">
      @font-face {
        font-family: "Virgil";
        src: url("https://excalidraw.com/Virgil.woff2");
      }
      @font-face {
        font-family: "Cascadia";
        src: url("https://excalidraw.com/Cascadia.woff2");
      }
      @font-face {
        font-family: "Assistant";
        src: url("https://excalidraw.com/Assistant-Regular.woff2");
      }
    </style>
    
  </defs>
  <rect x="0" y="0" width="1450.2535911563054" height="847.8482333237089" fill="#ffffff"></rect><g stroke-linecap="round" transform="translate(376.0444885337113 696.2944535980241) rotate(0 145.55132123894316 35.85862540041899)"><path d="M17.93 0 C96.73 1.2, 175.14 0.85, 273.17 0 M17.93 0 C103.27 -1.51, 189.48 -1.42, 273.17 0 M273.17 0 C283.85 -0.72, 292.83 7.26, 291.1 17.93 M273.17 0 C283.5 1.81, 292.31 5.54, 291.1 17.93 M291.1 17.93 C288.91 25.52, 289.57 38.22, 291.1 53.79 M291.1 17.93 C290.3 31.43, 290.35 43.62, 291.1 53.79 M291.1 53.79 C290.51 64.33, 286.18 71.4, 273.17 71.72 M291.1 53.79 C289.04 67.97, 286.45 70.4, 273.17 71.72 M273.17 71.72 C173.45 71.54, 72.33 68.68, 17.93 71.72 M273.17 71.72 C200.66 69.71, 128.92 69.77, 17.93 71.72 M17.93 71.72 C4.16 70.16, -1.62 66.68, 0 53.79 M17.93 71.72 C4.25 71.21, -0.97 64.62, 0 53.79 M0 53.79 C0 40.82, 1.84 33.01, 0 17.93 M0 53.79 C0.33 42.3, 0.31 30.09, 0 17.93 M0 17.93 C-1.3 7.04, 5.34 -0.45, 17.93 0 M0 17.93 C-1.09 6.3, 4.28 -1.87, 17.93 0" stroke="#1e1e1e" stroke-width="2" fill="none"></path></g><g transform="translate(390.54591353241995 707.1530789984427) rotate(0 131.04989624023438 25)"><text x="131.04989624023438" y="0" font-family="Virgil, Segoe UI Emoji" font-size="20px" fill="#1e1e1e" text-anchor="middle" style="white-space: pre;" direction="ltr" dominant-baseline="text-before-edge">workload-backend.tf</text><text x="131.04989624023438" y="25" font-family="Virgil, Segoe UI Emoji" font-size="20px" fill="#1e1e1e" text-anchor="middle" style="white-space: pre;" direction="ltr" dominant-baseline="text-before-edge">res_id = "modules.backend"</text></g><g stroke-linecap="round" transform="translate(283.55825871828097 431.9903215179602) rotate(0 149.132890826682 37.48639714006458)"><path d="M18.74 0 C73.51 -1.93, 128.87 -0.92, 279.52 0 M18.74 0 C107.84 -0.54, 196.75 -0.7, 279.52 0 M279.52 0 C292.51 -0.07, 299.71 7.18, 298.27 18.74 M279.52 0 C292.99 2.29, 297.56 5.69, 298.27 18.74 M298.27 18.74 C296.9 32.22, 296.37 48.31, 298.27 56.23 M298.27 18.74 C297.89 31.86, 298.68 46.66, 298.27 56.23 M298.27 56.23 C299.21 67.68, 294.02 73.14, 279.52 74.97 M298.27 56.23 C297.36 68.21, 294.04 73.32, 279.52 74.97 M279.52 74.97 C195.33 76.78, 112.98 77.79, 18.74 74.97 M279.52 74.97 C198.56 76.46, 116.41 75.55, 18.74 74.97 M18.74 74.97 C4.98 76.16, 1.06 69.48, 0 56.23 M18.74 74.97 C5.5 73.09, 1.17 68.43, 0 56.23 M0 56.23 C-0.19 47.23, 0.4 40.85, 0 18.74 M0 56.23 C-0.51 45.01, -0.46 32.07, 0 18.74 M0 18.74 C-0.33 7.96, 7.14 0.61, 18.74 0 M0 18.74 C2.16 6.54, 6.39 2.13, 18.74 0" stroke="#1e1e1e" stroke-width="2" fill="none"></path></g><g transform="translate(301.6412533047285 444.47671865802477) rotate(0 131.04989624023438 25)"><text x="131.04989624023438" y="0" font-family="Virgil, Segoe UI Emoji" font-size="20px" fill="#1e1e1e" text-anchor="middle" style="white-space: pre;" direction="ltr" dominant-baseline="text-before-edge">service-account-backend.tf</text><text x="131.04989624023438" y="25" font-family="Virgil, Segoe UI Emoji" font-size="20px" fill="#1e1e1e" text-anchor="middle" style="white-space: pre;" direction="ltr" dominant-baseline="text-before-edge">res_id = "modules.backend"</text></g><g mask="url(#mask-am-eb7R6h6xgvcH6xCAgg)" stroke-linecap="round"><g transform="translate(422.7030592891231 510.86007177757983) rotate(0 15.899096573039856 87.04869875586837)"><path d="M-0.98 -1.19 C4.45 27.73, 26.7 144.15, 32.09 173.24 M0.7 0.8 C6.04 29.87, 26.35 145.41, 31.3 174.33" stroke="#1e1e1e" stroke-width="1" fill="none"></path></g><g transform="translate(422.7030592891231 510.86007177757983) rotate(0 15.899096573039856 87.04869875586837)"><path d="M11.8 20.29 C6.55 15.11, 3.79 8.39, -0.98 -1.19 M11.8 20.29 C8.93 14.38, 5.13 9.42, -0.98 -1.19" stroke="#1e1e1e" stroke-width="1" fill="none"></path></g><g transform="translate(422.7030592891231 510.86007177757983) rotate(0 15.899096573039856 87.04869875586837)"><path d="M-5 23.48 C-5.89 17.61, -4.29 10.06, -0.98 -1.19 M-5 23.48 C-3.86 16.65, -3.66 10.93, -0.98 -1.19" stroke="#1e1e1e" stroke-width="1" fill="none"></path></g></g><mask id="mask-am-eb7R6h6xgvcH6xCAgg"><rect x="0" y="0" fill="#fff" width="554.5012524352028" height="784.9574692893166"></rect><rect x="384.72220438511204" y="585.4087705334487" fill="#000" width="107.75990295410156" height="25" opacity="1"></rect></mask><g transform="translate(384.72220438511204 585.4087705334487) rotate(0 53.53525126017644 12.019445710861874)"><text x="53.87995147705078" y="0" font-family="Virgil, Segoe UI Emoji" font-size="20px" fill="#1e1e1e" text-anchor="middle" style="white-space: pre;" direction="ltr" dominant-baseline="text-before-edge">Dependency</text></g><g stroke-linecap="round" transform="translate(648.4360883081301 437.1672736970977) rotate(0 149.132890826682 37.48639714006458)"><path d="M18.74 0 C113.27 3.27, 211.71 3.36, 279.52 0 M18.74 0 C101.02 -1.23, 183.39 -0.35, 279.52 0 M279.52 0 C290.6 -1.97, 297.49 5.82, 298.27 18.74 M279.52 0 C290.49 -2.12, 296.81 3.97, 298.27 18.74 M298.27 18.74 C298.06 26.07, 298.2 36.36, 298.27 56.23 M298.27 18.74 C298.3 31.27, 297.44 44.32, 298.27 56.23 M298.27 56.23 C297.02 69.27, 293.08 74.06, 279.52 74.97 M298.27 56.23 C300.31 67.84, 291.45 77.16, 279.52 74.97 M279.52 74.97 C208.47 76.19, 133.14 76.49, 18.74 74.97 M279.52 74.97 C209.67 75.24, 139.58 76.21, 18.74 74.97 M18.74 74.97 C8.18 74.77, 0.22 70.53, 0 56.23 M18.74 74.97 C4.73 76.81, -1.63 68.75, 0 56.23 M0 56.23 C-0.53 45.57, 0.99 37.01, 0 18.74 M0 56.23 C0.44 41.19, -0.19 25.99, 0 18.74 M0 18.74 C1.14 7.72, 5.77 -1.15, 18.74 0 M0 18.74 C-0.02 5.03, 4.24 -0.41, 18.74 0" stroke="#1e1e1e" stroke-width="2" fill="none"></path></g><g transform="translate(686.2490709927222 449.6536708371623) rotate(0 111.31990814208984 25)"><text x="111.31990814208984" y="0" font-family="Virgil, Segoe UI Emoji" font-size="20px" fill="#1e1e1e" text-anchor="middle" style="white-space: pre;" direction="ltr" dominant-baseline="text-before-edge">aws-role.tf</text><text x="111.31990814208984" y="25" font-family="Virgil, Segoe UI Emoji" font-size="20px" fill="#1e1e1e" text-anchor="middle" style="white-space: pre;" direction="ltr" dominant-baseline="text-before-edge">env_id = "development"</text></g><g mask="url(#mask--y3CqEdB6f-j6zPazY8AW)" stroke-linecap="round"><g transform="translate(801.2753573909781 518.3880241418219) rotate(0 -96.5800065414112 84.61950815474938)"><path d="M0.82 0.58 C-31.44 28.67, -160.76 141.02, -192.98 169.15 M-0.21 -0.16 C-32.66 28.08, -161.72 142.16, -193.84 170.64" stroke="#1e1e1e" stroke-width="1" fill="none"></path></g><g transform="translate(801.2753573909781 518.3880241418219) rotate(0 -96.5800065414112 84.61950815474938)"><path d="M-11.3 22.45 C-6.24 15.08, -3.15 8.29, 0.82 0.58 M-11.3 22.45 C-7.68 15.04, -4.58 8.58, 0.82 0.58" stroke="#1e1e1e" stroke-width="1" fill="none"></path></g><g transform="translate(801.2753573909781 518.3880241418219) rotate(0 -96.5800065414112 84.61950815474938)"><path d="M-22.52 9.54 C-13.5 6.57, -6.52 4.26, 0.82 0.58 M-22.52 9.54 C-15.56 6.17, -9 3.69, 0.82 0.58" stroke="#1e1e1e" stroke-width="1" fill="none"></path></g></g><mask id="mask--y3CqEdB6f-j6zPazY8AW"><rect x="0" y="0" fill="#fff" width="1094.4353704738005" height="787.6270404513207"></rect><rect x="650.8153993725159" y="590.5075322965713" fill="#000" width="107.75990295410156" height="25" opacity="1"></rect></mask><g transform="translate(650.8153993725159 590.5075322965713) rotate(0 53.95116507134401 13.120787448826832)"><text x="53.87995147705078" y="0" font-family="Virgil, Segoe UI Emoji" font-size="20px" fill="#1e1e1e" text-anchor="middle" style="white-space: pre;" direction="ltr" dominant-baseline="text-before-edge">Dependency</text></g><g stroke-linecap="round" transform="translate(140.83423848303937 54.68073040444233) rotate(0 149.132890826682 37.48639714006458)"><path d="M18.74 0 C108.05 -0.09, 194.28 -2.27, 279.52 0 M18.74 0 C75.38 -0.63, 132.56 -0.75, 279.52 0 M279.52 0 C292.26 0.65, 297.82 6.81, 298.27 18.74 M279.52 0 C289.81 -1.75, 297.88 6.26, 298.27 18.74 M298.27 18.74 C299.53 31.3, 299.92 42.2, 298.27 56.23 M298.27 18.74 C298.33 27.5, 297.62 34.67, 298.27 56.23 M298.27 56.23 C297.46 69.98, 292.36 73.93, 279.52 74.97 M298.27 56.23 C299.77 67.97, 290.3 76.08, 279.52 74.97 M279.52 74.97 C224.92 74.29, 169.98 73.79, 18.74 74.97 M279.52 74.97 C209.1 74.48, 138.72 74.51, 18.74 74.97 M18.74 74.97 C7.47 73.99, -0.15 68.73, 0 56.23 M18.74 74.97 C4.34 73.54, -0.6 70.95, 0 56.23 M0 56.23 C-1.09 45.2, 1.23 34.73, 0 18.74 M0 56.23 C-0.93 45.65, -0.87 33.7, 0 18.74 M0 18.74 C-1.2 6.54, 4.36 1.79, 18.74 0 M0 18.74 C-1.5 5.75, 8.05 1.88, 18.74 0" stroke="#1e1e1e" stroke-width="2" fill="none"></path></g><g transform="translate(213.0672117071822 67.16712754450691) rotate(0 76.89991760253906 25)"><text x="76.89991760253906" y="0" font-family="Virgil, Segoe UI Emoji" font-size="20px" fill="#1e1e1e" text-anchor="middle" style="white-space: pre;" direction="ltr" dominant-baseline="text-before-edge">aws-policy-s3.tf</text><text x="76.89991760253906" y="25" font-family="Virgil, Segoe UI Emoji" font-size="20px" fill="#1e1e1e" text-anchor="middle" style="white-space: pre;" direction="ltr" dominant-baseline="text-before-edge">class = "s3"</text></g><g stroke-linecap="round" transform="translate(147.88480025791432 291.68510714709646) rotate(0 149.132890826682 37.48639714006458)"><path d="M18.74 0 C84.67 -1.44, 150.47 0.28, 279.52 0 M18.74 0 C89.43 -1.05, 160.08 -0.54, 279.52 0 M279.52 0 C294.02 0.96, 297.3 4.79, 298.27 18.74 M279.52 0 C290.35 2.21, 299.85 7.13, 298.27 18.74 M298.27 18.74 C297.14 29.43, 297.71 40.29, 298.27 56.23 M298.27 18.74 C298.94 32.36, 297.21 45.3, 298.27 56.23 M298.27 56.23 C298.46 69.56, 293.53 75.21, 279.52 74.97 M298.27 56.23 C299.79 70.69, 291.44 75.48, 279.52 74.97 M279.52 74.97 C214.21 73.17, 144.68 72.94, 18.74 74.97 M279.52 74.97 C210.95 75.86, 140.96 76.21, 18.74 74.97 M18.74 74.97 C5.09 76.32, 1.81 69.41, 0 56.23 M18.74 74.97 C5.73 76.07, -1.45 68.78, 0 56.23 M0 56.23 C-0.28 45.35, -0.84 36.62, 0 18.74 M0 56.23 C0.11 47.95, 0.68 38.61, 0 18.74 M0 18.74 C0.07 6.24, 6.8 1.15, 18.74 0 M0 18.74 C0.31 5.97, 4.59 -0.47, 18.74 0" stroke="#1e1e1e" stroke-width="2" fill="none"></path></g><g transform="translate(220.11777348205715 304.17150428716104) rotate(0 76.89991760253906 25)"><text x="76.89991760253906" y="0" font-family="Virgil, Segoe UI Emoji" font-size="20px" fill="#1e1e1e" text-anchor="middle" style="white-space: pre;" direction="ltr" dominant-baseline="text-before-edge">aws-policy-s3.tf</text><text x="76.89991760253906" y="25" font-family="Virgil, Segoe UI Emoji" font-size="20px" fill="#1e1e1e" text-anchor="middle" style="white-space: pre;" direction="ltr" dominant-baseline="text-before-edge">class = "mys3"</text></g><g mask="url(#mask-4kTZZ_MxfhzxSq8K87hFI)" stroke-linecap="round"><g transform="translate(293.2366572523879 287.327769947512) rotate(0 -0.74649833673584 -77.72022087879031)"><path d="M-0.16 -0.17 C-0.59 -26.18, -2.05 -129.4, -2.34 -155.34 M-1.71 -1.3 C-1.77 -27.16, 0.12 -128.19, -0.07 -153.75" stroke="#1e1e1e" stroke-width="1" fill="none"></path></g><g transform="translate(293.2366572523879 287.327769947512) rotate(0 -0.74649833673584 -77.72022087879031)"><path d="M8.31 -130.19 C5.24 -139.05, 3.05 -145.7, -0.07 -153.75 M8.31 -130.19 C5.11 -135.71, 3.35 -143.43, -0.07 -153.75" stroke="#1e1e1e" stroke-width="1" fill="none"></path></g><g transform="translate(293.2366572523879 287.327769947512) rotate(0 -0.74649833673584 -77.72022087879031)"><path d="M-8.79 -130.32 C-6.46 -139.11, -3.26 -145.73, -0.07 -153.75 M-8.79 -130.32 C-7.33 -135.89, -4.44 -143.58, -0.07 -153.75" stroke="#1e1e1e" stroke-width="1" fill="none"></path></g></g><mask id="mask-4kTZZ_MxfhzxSq8K87hFI"><rect x="0" y="0" fill="#fff" width="394.72965392585957" height="542.7682117050927"></rect><rect x="238.61020743860126" y="197.1075490687217" fill="#000" width="107.75990295410156" height="25" opacity="1"></rect></mask><g transform="translate(238.61020743860126 197.1075490687217) rotate(0 53.427005139551284 12.467271983995943)"><text x="53.87995147705078" y="0" font-family="Virgil, Segoe UI Emoji" font-size="20px" fill="#1e1e1e" text-anchor="middle" style="white-space: pre;" direction="ltr" dominant-baseline="text-before-edge">Dependency</text></g><g mask="url(#mask-4gpJHsq8whyIwTvcmLyxG)" stroke-linecap="round"><g transform="translate(115.43318990042258 666.688174538087) rotate(0 74.2351968143131 -137.9949111109031)"><path d="M-0.32 0.43 C2.43 -12.13, -7.67 -28.48, 17.11 -74.48 C41.89 -120.49, 126.43 -242.05, 148.37 -275.59" stroke="#1e1e1e" stroke-width="1.5" fill="none" stroke-dasharray="1.5 7"></path></g><g transform="translate(115.43318990042258 666.688174538087) rotate(0 74.2351968143131 -137.9949111109031)"><path d="M142.34 -251.33 C145.01 -260.56, 146.41 -268.62, 148.37 -275.59" stroke="#1e1e1e" stroke-width="1.5" fill="none" stroke-dasharray="1.5 5"></path></g><g transform="translate(115.43318990042258 666.688174538087) rotate(0 74.2351968143131 -137.9949111109031)"><path d="M128.16 -260.88 C135.91 -266.7, 142.31 -271.39, 148.37 -275.59" stroke="#1e1e1e" stroke-width="1.5" fill="none" stroke-dasharray="1.5 5"></path></g></g><mask id="mask-4gpJHsq8whyIwTvcmLyxG"><rect x="0" y="0" fill="#fff" width="363.9035835290488" height="1042.6779967598932"></rect><rect x="57.579064295656735" y="579.7110007884512" fill="#000" width="150.7398681640625" height="25" opacity="1"></rect></mask><g transform="translate(57.579064295656735 579.7110007884512) rotate(0 131.87869526295538 -50.60119059965018)"><text x="75.36993408203125" y="0" font-family="Virgil, Segoe UI Emoji" font-size="20px" fill="#1e1e1e" text-anchor="middle" style="white-space: pre;" direction="ltr" dominant-baseline="text-before-edge">Direct Request</text></g><g stroke-linecap="round" transform="translate(102.61260272991854 10) rotate(0 336.5501391011063 83.3925136205753)"><path d="M32 0 C220.53 2.16, 410.36 2.65, 641.1 0 M32 0 C268.16 0.26, 503.72 -0.46, 641.1 0 M641.1 0 C660.79 -1.03, 674.87 10.97, 673.1 32 M641.1 0 C662.21 -0.52, 671.85 9.87, 673.1 32 M673.1 32 C675.19 74.25, 675.82 112.84, 673.1 134.79 M673.1 32 C673.72 56.39, 673.07 79.78, 673.1 134.79 M673.1 134.79 C673.03 157.63, 660.94 165.41, 641.1 166.79 M673.1 134.79 C671.07 156.88, 660.82 168.16, 641.1 166.79 M641.1 166.79 C490.68 164.98, 341.02 165.4, 32 166.79 M641.1 166.79 C496.32 165.39, 351.43 165.66, 32 166.79 M32 166.79 C9.61 168.47, 0.21 155.63, 0 134.79 M32 166.79 C8.66 165.47, -1.41 153.88, 0 134.79 M0 134.79 C0.1 98.84, 1.24 63.41, 0 32 M0 134.79 C1.01 96.8, 0.19 58.04, 0 32 M0 32 C-1.97 9.87, 11.46 1.64, 32 0 M0 32 C0.15 12.61, 9.63 -1.99, 32 0" stroke="#1e1e1e" stroke-width="1" fill="none"></path></g><g transform="translate(144.24787153590364 18.71841489428789) rotate(0 52.279945373535156 12.5)"><text x="0" y="0" font-family="Virgil, Segoe UI Emoji" font-size="20px" fill="#1e1e1e" text-anchor="start" style="white-space: pre;" direction="ltr" dominant-baseline="text-before-edge">Policies (n)</text></g><g mask="url(#mask-i8ZVn0k6PGVgclSTlqa-8)" stroke-linecap="round"><g transform="translate(800.5236601569927 433.92753412218826) rotate(0 -61.72717399330361 -127.5735641579754)"><path d="M-0.82 -0.51 C-21.34 -43.14, -103.36 -213.2, -123.78 -255.46" stroke="#1e1e1e" stroke-width="1.5" fill="none" stroke-dasharray="8 9"></path></g><g transform="translate(800.5236601569927 433.92753412218826) rotate(0 -61.72717399330361 -127.5735641579754)"><path d="M-105.86 -238.02 C-111.16 -242.97, -115.24 -246.49, -123.78 -255.46" stroke="#1e1e1e" stroke-width="1.5" fill="none"></path></g><g transform="translate(800.5236601569927 433.92753412218826) rotate(0 -61.72717399330361 -127.5735641579754)"><path d="M-121.27 -230.59 C-122.8 -237.26, -123.1 -242.6, -123.78 -255.46" stroke="#1e1e1e" stroke-width="1.5" fill="none"></path></g></g><mask id="mask-i8ZVn0k6PGVgclSTlqa-8"><rect x="0" y="0" fill="#fff" width="1023.9780081435999" height="789.0746624381391"></rect><rect x="684.9165346866384" y="293.8539699642124" fill="#000" width="107.75990295410156" height="25" opacity="1"></rect></mask><g transform="translate(684.9165346866384 293.8539699642124) rotate(0 53.310706799849754 12.090186834708675)"><text x="53.87995147705078" y="0" font-family="Virgil, Segoe UI Emoji" font-size="20px" fill="#1e1e1e" text-anchor="middle" style="white-space: pre;" direction="ltr" dominant-baseline="text-before-edge">Dependency</text></g><g mask="url(#mask-8kT-3GSwzjiQ1cpgXKV6h)" stroke-linecap="round"><g transform="translate(472.6604486809133 511.8532436160049) rotate(0 121.38699964293028 27.756289894138718)"><path d="M-0.65 0.41 C15.71 9.64, 58.41 56, 99.14 56.46 C139.86 56.92, 219.81 11.96, 243.69 3.17 M1.2 -0.42 C17.84 9, 60.91 54.12, 101.28 54.84 C141.65 55.55, 219.87 12.27, 243.41 3.88" stroke="#1e1e1e" stroke-width="1" fill="none"></path></g><g transform="translate(472.6604486809133 511.8532436160049) rotate(0 121.38699964293028 27.756289894138718)"><path d="M23.42 7.16 C14.87 2.65, 6.6 3.41, -0.65 0.41 M23.42 7.16 C19.09 5.15, 13.07 3.88, -0.65 0.41" stroke="#1e1e1e" stroke-width="1" fill="none"></path></g><g transform="translate(472.6604486809133 511.8532436160049) rotate(0 121.38699964293028 27.756289894138718)"><path d="M13.44 21.05 C8.57 11.3, 4.1 6.78, -0.65 0.41 M13.44 21.05 C11.2 16.25, 7.22 12.13, -0.65 0.41" stroke="#1e1e1e" stroke-width="1" fill="none"></path></g></g><mask id="mask-8kT-3GSwzjiQ1cpgXKV6h"><rect x="0" y="0" fill="#fff" width="815.4344479667739" height="667.3658234042823"></rect><rect x="519.0059543323737" y="554.8658234042823" fill="#000" width="107.75990295410156" height="25" opacity="1"></rect></mask><g transform="translate(519.0059543323737 554.8658234042823) rotate(0 75.17309335254686 -14.992098359719876)"><text x="53.87995147705078" y="0" font-family="Virgil, Segoe UI Emoji" font-size="20px" fill="#1e1e1e" text-anchor="middle" style="white-space: pre;" direction="ltr" dominant-baseline="text-before-edge">Dependency</text></g><g stroke-linecap="round" transform="translate(934.6597762374797 213.14526151567952) rotate(0 140.6123898496545 43.18511389509513)"><path d="M21.59 0 C96.39 2.13, 174.5 1.44, 259.63 0 M21.59 0 C75.91 0.66, 130.47 1.42, 259.63 0 M259.63 0 C275.92 0.09, 279.64 5.3, 281.22 21.59 M259.63 0 C274.1 -0.3, 282.46 4.99, 281.22 21.59 M281.22 21.59 C282.9 30.33, 281.46 43.95, 281.22 64.78 M281.22 21.59 C280.49 36.41, 281.29 53.49, 281.22 64.78 M281.22 64.78 C281.34 78.38, 273.7 86.58, 259.63 86.37 M281.22 64.78 C282.75 78.11, 273.43 85.55, 259.63 86.37 M259.63 86.37 C197.28 86.36, 138.35 87.14, 21.59 86.37 M259.63 86.37 C203.95 85.08, 147.58 84.94, 21.59 86.37 M21.59 86.37 C6.86 87.01, 0.09 79.74, 0 64.78 M21.59 86.37 C7.48 87.31, -1.77 79.7, 0 64.78 M0 64.78 C0.44 50.9, -0.63 33.09, 0 21.59 M0 64.78 C0.09 56.2, 1.04 47.59, 0 21.59 M0 21.59 C0.65 6.54, 5.64 -0.23, 21.59 0 M0 21.59 C-2.14 5.21, 7.01 0.76, 21.59 0" stroke="#1e1e1e" stroke-width="2" fill="none"></path></g><g transform="translate(964.9622677106693 231.33037541077465) rotate(0 110.30989837646473 25)"><text x="110.30989837646484" y="0" font-family="Virgil, Segoe UI Emoji" font-size="20px" fill="#1e1e1e" text-anchor="middle" style="white-space: pre;" direction="ltr" dominant-baseline="text-before-edge">k8s-cluster (shared)</text><text x="110.30989837646484" y="25" font-family="Virgil, Segoe UI Emoji" font-size="20px" fill="#1e1e1e" text-anchor="middle" style="white-space: pre;" direction="ltr" dominant-baseline="text-before-edge">res_id = "k8s-cluster"</text></g><g stroke-linecap="round" transform="translate(923.0364921062735 100.8519388886707) rotate(0 138.70822353089272 42.5)"><path d="M21.25 0 C96.15 -1.35, 168.4 -0.78, 256.17 0 M21.25 0 C78.8 -1.06, 138.02 0.21, 256.17 0 M256.17 0 C269.18 0.83, 277.53 5.58, 277.42 21.25 M256.17 0 C269.74 -0.9, 276.23 8.76, 277.42 21.25 M277.42 21.25 C275.83 35.27, 276.53 47.06, 277.42 63.75 M277.42 21.25 C276.81 34.49, 278.76 46.82, 277.42 63.75 M277.42 63.75 C276.46 78.93, 270.32 83.64, 256.17 85 M277.42 63.75 C276.38 80.17, 269.33 85.72, 256.17 85 M256.17 85 C164.71 86.88, 70.11 86.53, 21.25 85 M256.17 85 C188.69 82.42, 123.13 83.84, 21.25 85 M21.25 85 C7.27 86.04, -0.81 79.02, 0 63.75 M21.25 85 C5.65 87.09, -0.5 80.06, 0 63.75 M0 63.75 C0.91 53.79, -1.04 41.65, 0 21.25 M0 63.75 C0.29 50.03, 0.2 34.45, 0 21.25 M0 21.25 C0.88 7.9, 8.42 -1, 21.25 0 M0 21.25 C-2.15 5.99, 8.37 0.53, 21.25 0" stroke="#1e1e1e" stroke-width="2" fill="none"></path></g><g transform="translate(934.9548215331622 118.3519388886707) rotate(0 126.78989410400402 25)"><text x="126.7898941040039" y="0" font-family="Virgil, Segoe UI Emoji" font-size="20px" fill="#1e1e1e" text-anchor="middle" style="white-space: pre;" direction="ltr" dominant-baseline="text-before-edge">namespace.tf</text><text x="126.7898941040039" y="25" font-family="Virgil, Segoe UI Emoji" font-size="20px" fill="#1e1e1e" text-anchor="middle" style="white-space: pre;" direction="ltr" dominant-baseline="text-before-edge">res_id = "k8s-namespace"</text></g><g mask="url(#mask-TxLnD3z_7wIGrvYBHFmhz)" stroke-linecap="round"><g transform="translate(844.3926786198035 431.92723146944263) rotate(0 36.82406773707032 -143.67288689746147)"><path d="M-0.7 -0.75 C0.22 -36.01, -6.93 -162.77, 5.28 -210.58 C17.49 -258.4, 60.98 -274.75, 72.56 -287.62 M1.14 1.47 C2.47 -34.23, -4.64 -164.43, 7.65 -212.42 C19.94 -260.41, 64.17 -274.02, 74.89 -286.45" stroke="#1e1e1e" stroke-width="1" fill="none"></path></g><g transform="translate(844.3926786198035 431.92723146944263) rotate(0 36.82406773707032 -143.67288689746147)"><path d="M60.99 -265.67 C63.47 -272.5, 69.52 -279.04, 74.89 -286.45 M60.99 -265.67 C64.96 -270.45, 68.12 -276.54, 74.89 -286.45" stroke="#1e1e1e" stroke-width="1" fill="none"></path></g><g transform="translate(844.3926786198035 431.92723146944263) rotate(0 36.82406773707032 -143.67288689746147)"><path d="M50.89 -279.46 C56.31 -282.37, 65.19 -285.04, 74.89 -286.45 M50.89 -279.46 C57.78 -280.38, 63.75 -282.65, 74.89 -286.45" stroke="#1e1e1e" stroke-width="1" fill="none"></path></g></g><mask id="mask-TxLnD3z_7wIGrvYBHFmhz"><rect x="0" y="0" fill="#fff" width="1018.0408140939442" height="819.2730052643656"></rect><rect x="796.4535973974034" y="208.29635788239648" fill="#000" width="107.75990295410156" height="25" opacity="1"></rect></mask><g transform="translate(796.4535973974032 208.29635788239648) rotate(0 84.40829423772936 80.55584522960953)"><text x="53.87995147705078" y="0" font-family="Virgil, Segoe UI Emoji" font-size="20px" fill="#1e1e1e" text-anchor="middle" style="white-space: pre;" direction="ltr" dominant-baseline="text-before-edge">Dependency</text></g><g mask="url(#mask-Z-nz3KLYQTtCCfkF8Dsab)" stroke-linecap="round"><g transform="translate(881.0652371680706 433.1994554381672) rotate(0 26.155347787152323 -89.07557241195991)"><path d="M-0.39 -0.51 C-0.62 -20.27, -9.87 -89.66, -0.93 -119.11 C8.02 -148.56, 44.27 -167.22, 53.27 -177.23 M1.6 -1.83 C1.71 -21.43, -7.3 -88.56, 1.27 -118.11 C9.84 -147.65, 44.27 -169.01, 53 -179.09" stroke="#1e1e1e" stroke-width="1" fill="none"></path></g><g transform="translate(881.0652371680706 433.1994554381672) rotate(0 26.155347787152323 -89.07557241195991)"><path d="M41.23 -157.04 C44.41 -166, 47.51 -170.15, 53 -179.09 M41.23 -157.04 C44.76 -164.74, 49.1 -172.96, 53 -179.09" stroke="#1e1e1e" stroke-width="1" fill="none"></path></g><g transform="translate(881.0652371680706 433.1994554381672) rotate(0 26.155347787152323 -89.07557241195991)"><path d="M29.81 -169.76 C36.75 -174.44, 43.67 -174.33, 53 -179.09 M29.81 -169.76 C37.71 -172.57, 46.36 -176.01, 53 -179.09" stroke="#1e1e1e" stroke-width="1" fill="none"></path></g></g><mask id="mask-Z-nz3KLYQTtCCfkF8Dsab"><rect x="0" y="0" fill="#fff" width="1033.3759327423752" height="711.350600262087"></rect><rect x="827.239966142741" y="302.60254570900815" fill="#000" width="107.75990295410156" height="25" opacity="1"></rect></mask><g transform="translate(827.2399661427412 302.60254570900815) rotate(0 78.05075907045853 40.79396655592018)"><text x="53.87995147705078" y="0" font-family="Virgil, Segoe UI Emoji" font-size="20px" fill="#1e1e1e" text-anchor="middle" style="white-space: pre;" direction="ltr" dominant-baseline="text-before-edge">Dependency</text></g><g stroke-linecap="round"><g transform="translate(208.38377195747762 369.2310991552822) rotate(0 -32.383020348462196 29.234729206640623)"><path d="M-0.82 -0.69 C-11.76 9.15, -53.75 48.11, -64.52 58.11 M0.95 1.56 C-10.22 11.66, -54.09 50.15, -65.33 59.46" stroke="#1e1e1e" stroke-width="1" fill="none"></path></g><g transform="translate(208.38377195747762 369.2310991552822) rotate(0 -32.383020348462196 29.234729206640623)"><path d="M-53.05 37.68 C-59.2 46.56, -63.47 53.62, -65.33 59.46 M-53.05 37.68 C-56.66 44.89, -61.65 53.49, -65.33 59.46" stroke="#1e1e1e" stroke-width="1" fill="none"></path></g><g transform="translate(208.38377195747762 369.2310991552822) rotate(0 -32.383020348462196 29.234729206640623)"><path d="M-41.93 50.67 C-52.34 54.38, -60.97 56.34, -65.33 59.46 M-41.93 50.67 C-49.73 53.04, -58.83 56.85, -65.33 59.46" stroke="#1e1e1e" stroke-width="1" fill="none"></path></g></g><mask></mask><g stroke-linecap="round"><g transform="translate(148.57170966138597 135.1244557370701) rotate(0 -35.279860855018455 142.66089378079278)"><path d="M0.58 0.19 C-10.5 22.29, -53.68 85.31, -65.51 132.68 C-77.34 180.05, -69.76 259.06, -70.42 284.41 M-0.57 -0.76 C-11.35 21.52, -51.42 86.4, -63.17 134.06 C-74.93 181.73, -69.59 259.99, -71.11 285.25" stroke="#1e1e1e" stroke-width="1" fill="none"></path></g><g transform="translate(148.57170966138597 135.1244557370701) rotate(0 -35.279860855018455 142.66089378079278)"><path d="M-79.55 261.72 C-76 269.47, -73.59 279.89, -71.11 285.25 M-79.55 261.72 C-77.38 267.67, -74.82 272.79, -71.11 285.25" stroke="#1e1e1e" stroke-width="1" fill="none"></path></g><g transform="translate(148.57170966138597 135.1244557370701) rotate(0 -35.279860855018455 142.66089378079278)"><path d="M-62.45 261.8 C-65.43 269.6, -69.55 279.99, -71.11 285.25 M-62.45 261.8 C-64.12 267.66, -65.38 272.76, -71.11 285.25" stroke="#1e1e1e" stroke-width="1" fill="none"></path></g></g><mask></mask><g stroke-linecap="round" transform="translate(10.000000000000114 422.92274701174756) rotate(0 79.30595397870519 46.938766080897494)"><path d="M76.22 0.14 C87.93 -0.91, 102.37 0.82, 113.51 4.03 C124.66 7.25, 135.89 13.53, 143.09 19.41 C150.29 25.29, 154.8 32.48, 156.69 39.32 C158.59 46.16, 158.26 53.58, 154.47 60.47 C150.68 67.37, 142.86 75.54, 133.96 80.7 C125.07 85.86, 112.87 89.37, 101.09 91.45 C89.31 93.52, 75.32 94.53, 63.29 93.14 C51.25 91.76, 38.21 87.64, 28.9 83.12 C19.58 78.6, 12.09 72.77, 7.39 66.02 C2.69 59.28, -0.1 50.1, 0.68 42.66 C1.46 35.22, 5.67 27.45, 12.07 21.41 C18.47 15.36, 27.22 9.84, 39.1 6.39 C50.97 2.93, 74.79 1.43, 83.32 0.67 C91.86 -0.08, 90.37 1.07, 90.32 1.86 M60.61 0.76 C71.71 -1.33, 85.13 0.55, 97.1 2.31 C109.07 4.07, 122.88 6.82, 132.43 11.33 C141.97 15.84, 150.12 22.67, 154.37 29.36 C158.63 36.05, 159.41 44.11, 157.96 51.46 C156.5 58.81, 152.62 67.22, 145.63 73.43 C138.65 79.64, 126.92 85.5, 116.05 88.71 C105.17 91.92, 92.49 92.77, 80.38 92.7 C68.27 92.64, 54.2 91.35, 43.38 88.32 C32.56 85.29, 22.82 80.28, 15.47 74.52 C8.12 68.75, 0.99 60.92, -0.72 53.73 C-2.43 46.54, 0.57 38.08, 5.22 31.37 C9.87 24.66, 18.09 18.24, 27.21 13.46 C36.32 8.67, 54.47 4.36, 59.92 2.66 C65.37 0.96, 59.67 2.62, 59.89 3.26" stroke="#1e1e1e" stroke-width="1" fill="none"></path></g><g transform="translate(39.418224349668094 457.1707932963136) rotate(0 49.809951782226506 12.5)"><text x="49.80995178222656" y="0" font-family="Virgil, Segoe UI Emoji" font-size="20px" fill="#1e1e1e" text-anchor="middle" style="white-space: pre;" direction="ltr" dominant-baseline="text-before-edge">Terraform</text></g><g stroke-linecap="round" transform="translate(1030.9580130695472 432.7262073316624) rotate(0 79.30595397870525 46.938766080897494)"><path d="M98.89 1.36 C110.47 2.25, 123.13 6.45, 132.16 11.49 C141.2 16.53, 148.7 24.58, 153.1 31.61 C157.49 38.65, 160.04 46.58, 158.54 53.69 C157.05 60.8, 151.46 68.55, 144.15 74.28 C136.84 80.01, 125.64 84.73, 114.7 88.06 C103.77 91.39, 90.96 94.31, 78.55 94.27 C66.14 94.22, 51.05 91.37, 40.24 87.79 C29.44 84.21, 20.34 78.97, 13.73 72.79 C7.13 66.62, 1.93 58.05, 0.61 50.74 C-0.71 43.43, 1.39 35.43, 5.81 28.94 C10.22 22.45, 17.64 16.45, 27.08 11.78 C36.51 7.11, 48.39 2.02, 62.43 0.9 C76.47 -0.21, 101.53 3.81, 111.3 5.09 C121.06 6.38, 121.56 8.17, 121.03 8.61 M87.03 -0.36 C98.68 -0.36, 112.28 4.87, 122.5 9.06 C132.71 13.24, 142.48 18.8, 148.3 24.75 C154.13 30.7, 156.91 37.72, 157.43 44.75 C157.94 51.79, 156.82 60.34, 151.38 66.95 C145.93 73.56, 135.09 79.85, 124.75 84.4 C114.41 88.96, 101.15 93.36, 89.31 94.28 C77.48 95.21, 64.91 92.64, 53.73 89.97 C42.55 87.29, 30.57 83.5, 22.22 78.23 C13.87 72.97, 7.12 65.53, 3.62 58.38 C0.12 51.23, -1.48 42.42, 1.21 35.31 C3.89 28.21, 11.95 21.17, 19.76 15.75 C27.56 10.33, 37.04 5.23, 48.01 2.77 C58.99 0.31, 78.9 1.11, 85.59 1 C92.28 0.9, 88.12 1.57, 88.14 2.12" stroke="#1e1e1e" stroke-width="1" fill="none"></path></g><g transform="translate(1060.3762374192152 466.97425361622845) rotate(0 49.80995178222656 12.5)"><text x="49.80995178222656" y="0" font-family="Virgil, Segoe UI Emoji" font-size="20px" fill="#1e1e1e" text-anchor="middle" style="white-space: pre;" direction="ltr" dominant-baseline="text-before-edge">Terraform</text></g><g stroke-linecap="round"><g transform="translate(954.1384113955769 477.7778054250757) rotate(0 37.238995870719464 -0.20103107250452013)"><path d="M-1.11 0.16 C11.31 0.31, 62.02 -0.07, 74.6 -0.08 M0.51 -0.8 C12.78 -0.95, 61.54 -1.84, 73.71 -2.04" stroke="#1e1e1e" stroke-width="1" fill="none"></path></g><g transform="translate(954.1384113955769 477.7778054250757) rotate(0 37.238995870719464 -0.20103107250452013)"><path d="M50.37 6.92 C57.85 4.6, 65.25 1.49, 73.71 -2.04 M50.37 6.92 C58 3.38, 65.55 0.08, 73.71 -2.04" stroke="#1e1e1e" stroke-width="1" fill="none"></path></g><g transform="translate(954.1384113955769 477.7778054250757) rotate(0 37.238995870719464 -0.20103107250452013)"><path d="M50.08 -10.18 C57.51 -7.27, 65 -5.16, 73.71 -2.04 M50.08 -10.18 C57.77 -7.88, 65.42 -5.35, 73.71 -2.04" stroke="#1e1e1e" stroke-width="1" fill="none"></path></g></g><mask></mask><g stroke-linecap="round" transform="translate(103.09186080676841 246.30167145510404) rotate(0 266.2877081396356 69.68701922151331)"><path d="M32 0 C194.76 1.11, 358.14 1.18, 500.58 0 M32 0 C137.51 -0.24, 243.51 -0.25, 500.58 0 M500.58 0 C521.26 1.07, 532.99 11.27, 532.58 32 M500.58 0 C521.24 -0.22, 533.88 12.03, 532.58 32 M532.58 32 C531.6 57.65, 530.81 83.63, 532.58 107.37 M532.58 32 C532.98 54.4, 532.48 77.53, 532.58 107.37 M532.58 107.37 C533.42 130.14, 522.49 139.89, 500.58 139.37 M532.58 107.37 C531.33 127.74, 520.93 141.53, 500.58 139.37 M500.58 139.37 C400.49 139.64, 300.15 137.89, 32 139.37 M500.58 139.37 C361.15 139.61, 222.68 139.55, 32 139.37 M32 139.37 C12.45 137.86, 1.1 127.15, 0 107.37 M32 139.37 C8.86 141.59, -0.69 129.46, 0 107.37 M0 107.37 C-0.07 81.57, 2.26 57.88, 0 32 M0 107.37 C0.16 87.62, 1.13 67.3, 0 32 M0 32 C0.79 10.14, 9.27 1.88, 32 0 M0 32 C0.62 9.45, 11.08 0.89, 32 0" stroke="#1e1e1e" stroke-width="1" fill="none"></path></g><g transform="translate(124.12691420667534 255.64168717198572) rotate(0 66.31993865966797 12.5)"><text x="0" y="0" font-family="Virgil, Segoe UI Emoji" font-size="20px" fill="#1e1e1e" text-anchor="start" style="white-space: pre;" direction="ltr" dominant-baseline="text-before-edge">Resources (n)</text></g><g stroke-linecap="round" transform="translate(31.40937778927355 683.9399884214972) rotate(0 95.19455802363927 58.126632932308894)"><path d="M132.83 4.37 C144.84 6.29, 156.75 12.21, 165.45 17.97 C174.15 23.72, 180.81 31.22, 185.03 38.9 C189.24 46.57, 191.81 56.12, 190.76 64.02 C189.7 71.91, 185.02 79.36, 178.71 86.26 C172.39 93.16, 163.36 100.65, 152.87 105.42 C142.39 110.18, 128.49 113.4, 115.77 114.86 C103.05 116.32, 89.03 115.73, 76.57 114.17 C64.1 112.61, 51.58 109.92, 40.98 105.5 C30.39 101.08, 19.71 94.26, 13.02 87.65 C6.32 81.03, 2.18 73.56, 0.8 65.82 C-0.58 58.07, 0.87 48.77, 4.75 41.16 C8.63 33.56, 15.56 26.03, 24.09 20.17 C32.63 14.3, 44.17 9.36, 55.96 5.97 C67.75 2.59, 80.79 -0.34, 94.86 -0.17 C108.92 0.01, 131.81 5.12, 140.36 7.03 C148.9 8.94, 146.96 10.37, 146.14 11.28 M86.48 -0.28 C98.35 -1.81, 111.21 1.53, 123.2 4.03 C135.19 6.54, 148.68 9.46, 158.44 14.76 C168.19 20.05, 176.43 28.41, 181.74 35.8 C187.04 43.2, 189.95 51.47, 190.26 59.14 C190.56 66.8, 188.94 74.65, 183.56 81.8 C178.18 88.94, 167.83 96.92, 157.97 101.98 C148.11 107.04, 136.27 109.82, 124.4 112.18 C112.53 114.54, 99.65 116.56, 86.76 116.15 C73.87 115.74, 58.3 113.87, 47.04 109.71 C35.79 105.54, 26.86 97.53, 19.22 91.18 C11.58 84.84, 4.23 79.2, 1.22 71.63 C-1.8 64.05, -1.81 53.41, 1.13 45.73 C4.07 38.05, 11.35 31.8, 18.84 25.56 C26.33 19.31, 35.04 12.38, 46.07 8.25 C57.1 4.11, 78.34 1.89, 85.01 0.75 C91.68 -0.38, 85.7 0.71, 86.09 1.44" stroke="#1e1e1e" stroke-width="1" fill="none"></path></g><g transform="translate(66.26126529941155 716.9648850398289) rotate(0 60.529953002929744 25)"><text x="60.52995300292969" y="0" font-family="Virgil, Segoe UI Emoji" font-size="20px" fill="#1e1e1e" text-anchor="middle" style="white-space: pre;" direction="ltr" dominant-baseline="text-before-edge">Score</text><text x="60.52995300292969" y="25" font-family="Virgil, Segoe UI Emoji" font-size="20px" fill="#1e1e1e" text-anchor="middle" style="white-space: pre;" direction="ltr" dominant-baseline="text-before-edge">backend.yaml</text></g><g transform="translate(804.2540794375554 662.8482333237089) rotate(0 317.999755859375 87.5)"><text x="0" y="0" font-family="Virgil, Segoe UI Emoji" font-size="20px" fill="#1e1e1e" text-anchor="start" style="white-space: pre;" direction="ltr" dominant-baseline="text-before-edge">Notes:</text><text x="0" y="25" font-family="Virgil, Segoe UI Emoji" font-size="20px" fill="#1e1e1e" text-anchor="start" style="white-space: pre;" direction="ltr" dominant-baseline="text-before-edge">Arrow direction: Client -&gt; Supplier</text><text x="0" y="50" font-family="Virgil, Segoe UI Emoji" font-size="20px" fill="#1e1e1e" text-anchor="start" style="white-space: pre;" direction="ltr" dominant-baseline="text-before-edge">Dashed dependency: can be empty (workload with no resources,</text><text x="0" y="75" font-family="Virgil, Segoe UI Emoji" font-size="20px" fill="#1e1e1e" text-anchor="start" style="white-space: pre;" direction="ltr" dominant-baseline="text-before-edge">role is still created with no policies attached)</text><text x="0" y="100" font-family="Virgil, Segoe UI Emoji" font-size="20px" fill="#1e1e1e" text-anchor="start" style="white-space: pre;" direction="ltr" dominant-baseline="text-before-edge">Dotted dependency: can be omitted (workload with no resources)</text><text x="0" y="125" font-family="Virgil, Segoe UI Emoji" font-size="20px" fill="#1e1e1e" text-anchor="start" style="white-space: pre;" direction="ltr" dominant-baseline="text-before-edge">All matching criteria have app_id = "app name",</text><text x="0" y="150" font-family="Virgil, Segoe UI Emoji" font-size="20px" fill="#1e1e1e" text-anchor="start" style="white-space: pre;" direction="ltr" dominant-baseline="text-before-edge">omitted for brevity</text></g></svg>