<svg version="1.1" xmlns="http://www.w3.org/2000/svg" viewBox="0 0 1226.487177511011 809.9181444370133" width="3679.461532533033" height="2429.75443331104">
  <!-- svg-source:excalidraw -->
  
  <defs>
    <style class="style-fonts">
      @font-face {
        font-family: "Virgil";
        src: url("https://excalidraw.com/Virgil.woff2");
      }
      @font-face {
        font-family: "Cascadia";
        src: url("https://excalidraw.com/Cascadia.woff2");
      }
      @font-face {
        font-family: "Assistant";
        src: url("https://excalidraw.com/Assistant-Regular.woff2");
      }
    </style>
    
  </defs>
  <rect x="0" y="0" width="1226.487177511011" height="809.9181444370133" fill="#ffffff"></rect><g stroke-linecap="round" transform="translate(283.817186739667 634.2899337981362) rotate(0 145.55132123894316 35.85862540041899)"><path d="M17.93 0 C96.73 1.2, 175.14 0.85, 273.17 0 M17.93 0 C103.27 -1.51, 189.48 -1.42, 273.17 0 M273.17 0 C283.85 -0.72, 292.83 7.26, 291.1 17.93 M273.17 0 C283.5 1.81, 292.31 5.54, 291.1 17.93 M291.1 17.93 C288.91 25.52, 289.57 38.22, 291.1 53.79 M291.1 17.93 C290.3 31.43, 290.35 43.62, 291.1 53.79 M291.1 53.79 C290.51 64.33, 286.18 71.4, 273.17 71.72 M291.1 53.79 C289.04 67.97, 286.45 70.4, 273.17 71.72 M273.17 71.72 C173.45 71.54, 72.33 68.68, 17.93 71.72 M273.17 71.72 C200.66 69.71, 128.92 69.77, 17.93 71.72 M17.93 71.72 C4.16 70.16, -1.62 66.68, 0 53.79 M17.93 71.72 C4.25 71.21, -0.97 64.62, 0 53.79 M0 53.79 C0 40.82, 1.84 33.01, 0 17.93 M0 53.79 C0.33 42.3, 0.31 30.09, 0 17.93 M0 17.93 C-1.3 7.04, 5.34 -0.45, 17.93 0 M0 17.93 C-1.09 6.3, 4.28 -1.87, 17.93 0" stroke="#1e1e1e" stroke-width="2" fill="none"></path></g><g transform="translate(298.3186117383757 645.1485591985547) rotate(0 131.04989624023438 25)"><text x="131.04989624023438" y="0" font-family="Virgil, Segoe UI Emoji" font-size="20px" fill="#1e1e1e" text-anchor="middle" style="white-space: pre;" direction="ltr" dominant-baseline="text-before-edge">workload-backend.tf</text><text x="131.04989624023438" y="25" font-family="Virgil, Segoe UI Emoji" font-size="20px" fill="#1e1e1e" text-anchor="middle" style="white-space: pre;" direction="ltr" dominant-baseline="text-before-edge">res_id = "modules.backend"</text></g><g stroke-linecap="round" transform="translate(283.55825871828097 431.7152116688585) rotate(0 149.132890826682 37.48639714006458)"><path d="M18.74 0 C73.51 -1.93, 128.87 -0.92, 279.52 0 M18.74 0 C107.84 -0.54, 196.75 -0.7, 279.52 0 M279.52 0 C292.51 -0.07, 299.71 7.18, 298.27 18.74 M279.52 0 C292.99 2.29, 297.56 5.69, 298.27 18.74 M298.27 18.74 C296.9 32.22, 296.37 48.31, 298.27 56.23 M298.27 18.74 C297.89 31.86, 298.68 46.66, 298.27 56.23 M298.27 56.23 C299.21 67.68, 294.02 73.14, 279.52 74.97 M298.27 56.23 C297.36 68.21, 294.04 73.32, 279.52 74.97 M279.52 74.97 C195.33 76.78, 112.98 77.79, 18.74 74.97 M279.52 74.97 C198.56 76.46, 116.41 75.55, 18.74 74.97 M18.74 74.97 C4.98 76.16, 1.06 69.48, 0 56.23 M18.74 74.97 C5.5 73.09, 1.17 68.43, 0 56.23 M0 56.23 C-0.19 47.23, 0.4 40.85, 0 18.74 M0 56.23 C-0.51 45.01, -0.46 32.07, 0 18.74 M0 18.74 C-0.33 7.96, 7.14 0.61, 18.74 0 M0 18.74 C2.16 6.54, 6.39 2.13, 18.74 0" stroke="#1e1e1e" stroke-width="2" fill="none"></path></g><g transform="translate(301.6412533047285 444.2016088089231) rotate(0 131.04989624023438 25)"><text x="131.04989624023438" y="0" font-family="Virgil, Segoe UI Emoji" font-size="20px" fill="#1e1e1e" text-anchor="middle" style="white-space: pre;" direction="ltr" dominant-baseline="text-before-edge">service-account-backend.tf</text><text x="131.04989624023438" y="25" font-family="Virgil, Segoe UI Emoji" font-size="20px" fill="#1e1e1e" text-anchor="middle" style="white-space: pre;" direction="ltr" dominant-baseline="text-before-edge">res_id = "modules.backend"</text></g><g mask="url(#mask-am-eb7R6h6xgvcH6xCAgg)" stroke-linecap="round"><g transform="translate(422.9825359612262 510.86007177757983) rotate(0 -0.4022536919775348 62.06392095214551)"><path d="M-0.98 -1.19 C-0.99 19.4, -0.47 102.51, -0.51 123.27 M0.7 0.8 C0.61 21.54, -0.82 103.77, -1.3 124.36" stroke="#1e1e1e" stroke-width="1" fill="none"></path></g><g transform="translate(422.9825359612262 510.86007177757983) rotate(0 -0.4022536919775348 62.06392095214551)"><path d="M-9.39 100.7 C-9.33 107.4, -6.68 112.38, -1.3 124.36 M-9.39 100.7 C-7.43 105.33, -6.26 111.11, -1.3 124.36" stroke="#1e1e1e" stroke-width="1" fill="none"></path></g><g transform="translate(422.9825359612262 510.86007177757983) rotate(0 -0.4022536919775348 62.06392095214551)"><path d="M7.71 101.04 C3.33 107.5, 1.55 112.4, -1.3 124.36 M7.71 101.04 C5.6 105.75, 2.7 111.45, -1.3 124.36" stroke="#1e1e1e" stroke-width="1" fill="none"></path></g></g><mask id="mask-am-eb7R6h6xgvcH6xCAgg"><rect x="0" y="0" fill="#fff" width="523.7870433451812" height="734.9879136818709"></rect><rect x="368.70033079219775" y="560.4239927297249" fill="#000" width="107.75990295410156" height="25" opacity="1"></rect></mask><g transform="translate(368.70033079219775 560.4239927297249) rotate(0 53.98069154983398 12.019445710862783)"><text x="53.87995147705078" y="0" font-family="Virgil, Segoe UI Emoji" font-size="20px" fill="#1e1e1e" text-anchor="middle" style="white-space: pre;" direction="ltr" dominant-baseline="text-before-edge">Dependency</text></g><g stroke-linecap="round" transform="translate(648.4360883081301 436.892163847996) rotate(0 149.132890826682 37.48639714006458)"><path d="M18.74 0 C113.27 3.27, 211.71 3.36, 279.52 0 M18.74 0 C101.02 -1.23, 183.39 -0.35, 279.52 0 M279.52 0 C290.6 -1.97, 297.49 5.82, 298.27 18.74 M279.52 0 C290.49 -2.12, 296.81 3.97, 298.27 18.74 M298.27 18.74 C298.06 26.07, 298.2 36.36, 298.27 56.23 M298.27 18.74 C298.3 31.27, 297.44 44.32, 298.27 56.23 M298.27 56.23 C297.02 69.27, 293.08 74.06, 279.52 74.97 M298.27 56.23 C300.31 67.84, 291.45 77.16, 279.52 74.97 M279.52 74.97 C208.47 76.19, 133.14 76.49, 18.74 74.97 M279.52 74.97 C209.67 75.24, 139.58 76.21, 18.74 74.97 M18.74 74.97 C8.18 74.77, 0.22 70.53, 0 56.23 M18.74 74.97 C4.73 76.81, -1.63 68.75, 0 56.23 M0 56.23 C-0.53 45.57, 0.99 37.01, 0 18.74 M0 56.23 C0.44 41.19, -0.19 25.99, 0 18.74 M0 18.74 C1.14 7.72, 5.77 -1.15, 18.74 0 M0 18.74 C-0.02 5.03, 4.24 -0.41, 18.74 0" stroke="#1e1e1e" stroke-width="2" fill="none"></path></g><g transform="translate(686.2490709927222 449.3785609880606) rotate(0 111.31990814208984 25)"><text x="111.31990814208984" y="0" font-family="Virgil, Segoe UI Emoji" font-size="20px" fill="#1e1e1e" text-anchor="middle" style="white-space: pre;" direction="ltr" dominant-baseline="text-before-edge">aws-role.tf</text><text x="111.31990814208984" y="25" font-family="Virgil, Segoe UI Emoji" font-size="20px" fill="#1e1e1e" text-anchor="middle" style="white-space: pre;" direction="ltr" dominant-baseline="text-before-edge">env_id = "development"</text></g><g mask="url(#mask--y3CqEdB6f-j6zPazY8AW)" stroke-linecap="round"><g transform="translate(778.8981172480326 518.1129142927202) rotate(0 -100.68400062158366 79.54579381217036)"><path d="M0.82 0.58 C-32.81 26.98, -167.6 132.57, -201.19 159 M-0.21 -0.16 C-34.03 26.38, -168.56 133.71, -202.04 160.49" stroke="#1e1e1e" stroke-width="1" fill="none"></path></g><g transform="translate(778.8981172480326 518.1129142927202) rotate(0 -100.68400062158366 79.54579381217036)"><path d="M-189.02 139.15 C-192.47 146.94, -198.1 155.14, -202.04 160.49 M-189.02 139.15 C-193.55 144.95, -198.2 151.81, -202.04 160.49" stroke="#1e1e1e" stroke-width="1" fill="none"></path></g><g transform="translate(778.8981172480326 518.1129142927202) rotate(0 -100.68400062158366 79.54579381217036)"><path d="M-178.35 152.52 C-185.56 155.74, -194.89 159.31, -202.04 160.49 M-178.35 152.52 C-186.05 154.13, -194 156.87, -202.04 160.49" stroke="#1e1e1e" stroke-width="1" fill="none"></path></g></g><mask id="mask--y3CqEdB6f-j6zPazY8AW"><rect x="0" y="0" fill="#fff" width="1080.2661184912" height="777.204501917061"></rect><rect x="624.3341651493984" y="585.1587081048901" fill="#000" width="107.75990295410156" height="25" opacity="1"></rect></mask><g transform="translate(624.3341651493979 585.1587081048901) rotate(0 53.95116507134401 13.120787448827286)"><text x="53.87995147705078" y="0" font-family="Virgil, Segoe UI Emoji" font-size="20px" fill="#1e1e1e" text-anchor="middle" style="white-space: pre;" direction="ltr" dominant-baseline="text-before-edge">Dependency</text></g><g stroke-linecap="round" transform="translate(140.83423848303937 54.40562055534065) rotate(0 149.132890826682 37.48639714006458)"><path d="M18.74 0 C108.05 -0.09, 194.28 -2.27, 279.52 0 M18.74 0 C75.38 -0.63, 132.56 -0.75, 279.52 0 M279.52 0 C292.26 0.65, 297.82 6.81, 298.27 18.74 M279.52 0 C289.81 -1.75, 297.88 6.26, 298.27 18.74 M298.27 18.74 C299.53 31.3, 299.92 42.2, 298.27 56.23 M298.27 18.74 C298.33 27.5, 297.62 34.67, 298.27 56.23 M298.27 56.23 C297.46 69.98, 292.36 73.93, 279.52 74.97 M298.27 56.23 C299.77 67.97, 290.3 76.08, 279.52 74.97 M279.52 74.97 C224.92 74.29, 169.98 73.79, 18.74 74.97 M279.52 74.97 C209.1 74.48, 138.72 74.51, 18.74 74.97 M18.74 74.97 C7.47 73.99, -0.15 68.73, 0 56.23 M18.74 74.97 C4.34 73.54, -0.6 70.95, 0 56.23 M0 56.23 C-1.09 45.2, 1.23 34.73, 0 18.74 M0 56.23 C-0.93 45.65, -0.87 33.7, 0 18.74 M0 18.74 C-1.2 6.54, 4.36 1.79, 18.74 0 M0 18.74 C-1.5 5.75, 8.05 1.88, 18.74 0" stroke="#1e1e1e" stroke-width="2" fill="none"></path></g><g transform="translate(213.0672117071822 66.89201769540523) rotate(0 76.89991760253906 25)"><text x="76.89991760253906" y="0" font-family="Virgil, Segoe UI Emoji" font-size="20px" fill="#1e1e1e" text-anchor="middle" style="white-space: pre;" direction="ltr" dominant-baseline="text-before-edge">aws-policy-s3.tf</text><text x="76.89991760253906" y="25" font-family="Virgil, Segoe UI Emoji" font-size="20px" fill="#1e1e1e" text-anchor="middle" style="white-space: pre;" direction="ltr" dominant-baseline="text-before-edge">class = "s3"</text></g><g stroke-linecap="round" transform="translate(147.88480025791432 291.4099972979948) rotate(0 149.132890826682 37.48639714006458)"><path d="M18.74 0 C84.67 -1.44, 150.47 0.28, 279.52 0 M18.74 0 C89.43 -1.05, 160.08 -0.54, 279.52 0 M279.52 0 C294.02 0.96, 297.3 4.79, 298.27 18.74 M279.52 0 C290.35 2.21, 299.85 7.13, 298.27 18.74 M298.27 18.74 C297.14 29.43, 297.71 40.29, 298.27 56.23 M298.27 18.74 C298.94 32.36, 297.21 45.3, 298.27 56.23 M298.27 56.23 C298.46 69.56, 293.53 75.21, 279.52 74.97 M298.27 56.23 C299.79 70.69, 291.44 75.48, 279.52 74.97 M279.52 74.97 C214.21 73.17, 144.68 72.94, 18.74 74.97 M279.52 74.97 C210.95 75.86, 140.96 76.21, 18.74 74.97 M18.74 74.97 C5.09 76.32, 1.81 69.41, 0 56.23 M18.74 74.97 C5.73 76.07, -1.45 68.78, 0 56.23 M0 56.23 C-0.28 45.35, -0.84 36.62, 0 18.74 M0 56.23 C0.11 47.95, 0.68 38.61, 0 18.74 M0 18.74 C0.07 6.24, 6.8 1.15, 18.74 0 M0 18.74 C0.31 5.97, 4.59 -0.47, 18.74 0" stroke="#1e1e1e" stroke-width="2" fill="none"></path></g><g transform="translate(220.11777348205715 303.89639443805936) rotate(0 76.89991760253906 25)"><text x="76.89991760253906" y="0" font-family="Virgil, Segoe UI Emoji" font-size="20px" fill="#1e1e1e" text-anchor="middle" style="white-space: pre;" direction="ltr" dominant-baseline="text-before-edge">aws-policy-s3.tf</text><text x="76.89991760253906" y="25" font-family="Virgil, Segoe UI Emoji" font-size="20px" fill="#1e1e1e" text-anchor="middle" style="white-space: pre;" direction="ltr" dominant-baseline="text-before-edge">class = "mys3"</text></g><g mask="url(#mask-4kTZZ_MxfhzxSq8K87hFI)" stroke-linecap="round"><g transform="translate(293.2366572523879 287.05266009841034) rotate(0 -0.74649833673584 -77.72022087879031)"><path d="M-0.16 -0.17 C-0.59 -26.18, -2.05 -129.4, -2.34 -155.34 M-1.71 -1.3 C-1.77 -27.16, 0.12 -128.19, -0.07 -153.75" stroke="#1e1e1e" stroke-width="1" fill="none"></path></g><g transform="translate(293.2366572523879 287.05266009841034) rotate(0 -0.74649833673584 -77.72022087879031)"><path d="M-9.05 -23.53 C-6.38 -17.56, -3.13 -9.41, -0.16 -0.17 M-9.05 -23.53 C-7.37 -16.37, -4.44 -11.32, -0.16 -0.17" stroke="#1e1e1e" stroke-width="1" fill="none"></path></g><g transform="translate(293.2366572523879 287.05266009841034) rotate(0 -0.74649833673584 -77.72022087879031)"><path d="M8.05 -23.78 C5.32 -17.75, 3.18 -9.53, -0.16 -0.17 M8.05 -23.78 C5.07 -16.45, 3.35 -11.33, -0.16 -0.17" stroke="#1e1e1e" stroke-width="1" fill="none"></path></g></g><mask id="mask-4kTZZ_MxfhzxSq8K87hFI"><rect x="0" y="0" fill="#fff" width="394.72965392585957" height="542.493101855991"></rect><rect x="238.61020743860126" y="196.83243921962003" fill="#000" width="107.75990295410156" height="25" opacity="1"></rect></mask><g transform="translate(238.61020743860126 196.83243921962003) rotate(0 53.427005139551284 12.467271983995943)"><text x="53.87995147705078" y="0" font-family="Virgil, Segoe UI Emoji" font-size="20px" fill="#1e1e1e" text-anchor="middle" style="white-space: pre;" direction="ltr" dominant-baseline="text-before-edge">Dependency</text></g><g mask="url(#mask-4gpJHsq8whyIwTvcmLyxG)" stroke-linecap="round"><g transform="translate(115.57724074044677 666.4104249080592) rotate(0 68.75212116368562 -133.89314442192654)"><path d="M-0.32 0.43 C2.4 -12.13, -5.99 -29.84, 16.96 -74.48 C39.92 -119.12, 117.27 -235.21, 137.4 -267.39" stroke="#1e1e1e" stroke-width="1.5" fill="none" stroke-dasharray="1.5 7"></path></g><g transform="translate(115.57724074044677 666.4104249080592) rotate(0 68.75212116368562 -133.89314442192654)"><path d="M-6.61 -23.76 C-3.48 -15.88, -1.99 -6.83, -0.32 0.43" stroke="#1e1e1e" stroke-width="1.5" fill="none" stroke-dasharray="1.5 5"></path></g><g transform="translate(115.57724074044677 666.4104249080592) rotate(0 68.75212116368562 -133.89314442192654)"><path d="M10.42 -22.14 C7.52 -14.88, 3 -6.4, -0.32 0.43" stroke="#1e1e1e" stroke-width="1.5" fill="none" stroke-dasharray="1.5 5"></path></g></g><mask id="mask-4gpJHsq8whyIwTvcmLyxG"><rect x="0" y="0" fill="#fff" width="353.081483067818" height="1034.1967137519123"></rect><rect x="57.579064295656735" y="579.4358909393495" fill="#000" width="150.7398681640625" height="25" opacity="1"></rect></mask><g transform="translate(57.579064295656735 579.4358909393495) rotate(0 126.53967045235208 -46.50206369159969)"><text x="75.36993408203125" y="0" font-family="Virgil, Segoe UI Emoji" font-size="20px" fill="#1e1e1e" text-anchor="middle" style="white-space: pre;" direction="ltr" dominant-baseline="text-before-edge">Direct Request</text></g><g stroke-linecap="round" transform="translate(102.61260272991854 10) rotate(0 336.5501391011063 83.3925136205753)"><path d="M32 0 C220.53 2.16, 410.36 2.65, 641.1 0 M641.1 0 C664.18 -0.91, 673.19 11.51, 673.1 32 M673.1 32 C670.79 71.22, 674.2 112.8, 673.1 134.79 M673.1 134.79 C672.91 155.67, 661.35 166.1, 641.1 166.79 M641.1 166.79 C402.18 165.54, 163.03 164.82, 32 166.79 M32 166.79 C9.29 166.53, -0.55 157.61, 0 134.79 M0 134.79 C-0.17 98.98, -1.6 58.78, 0 32 M0 32 C-1.77 11.33, 9.27 1.19, 32 0" stroke="#1e1e1e" stroke-width="1.5" fill="none" stroke-dasharray="8 9"></path></g><g transform="translate(144.24787153590364 18.443305045186207) rotate(0 52.279945373535156 12.5)"><text x="0" y="0" font-family="Virgil, Segoe UI Emoji" font-size="20px" fill="#1e1e1e" text-anchor="start" style="white-space: pre;" direction="ltr" dominant-baseline="text-before-edge">Policies (n)</text></g><g mask="url(#mask-i8ZVn0k6PGVgclSTlqa-8)" stroke-linecap="round"><g transform="translate(800.8031368290958 433.6480574500838) rotate(0 -61.70481416237874 -127.43600923342456)"><path d="M-0.82 -0.51 C-21.33 -43.09, -103.32 -212.97, -123.73 -255.19" stroke="#1e1e1e" stroke-width="1.5" fill="none" stroke-dasharray="8 9"></path></g><g transform="translate(800.8031368290958 433.6480574500838) rotate(0 -61.70481416237874 -127.43600923342456)"><path d="M-18.73 -17.95 C-15.12 -14.07, -10.39 -9.02, -0.82 -0.51" stroke="#1e1e1e" stroke-width="1.5" fill="none"></path></g><g transform="translate(800.8031368290958 433.6480574500838) rotate(0 -61.70481416237874 -127.43600923342456)"><path d="M-3.32 -25.38 C-3.48 -19.78, -2.54 -12.9, -0.82 -0.51" stroke="#1e1e1e" stroke-width="1.5" fill="none"></path></g></g><mask id="mask-i8ZVn0k6PGVgclSTlqa-8"><rect x="0" y="0" fill="#fff" width="1024.2127651538533" height="788.5200759169329"></rect><rect x="691.5883663068539" y="281.21204821665924" fill="#000" width="95.01991271972656" height="50" opacity="1"></rect></mask><g transform="translate(691.5883663068537 281.21204821665924) rotate(0 46.940711682662254 24.59018683470822)"><text x="47.50995635986328" y="0" font-family="Virgil, Segoe UI Emoji" font-size="20px" fill="#1e1e1e" text-anchor="middle" style="white-space: pre;" direction="ltr" dominant-baseline="text-before-edge">Soft</text><text x="47.50995635986328" y="25" font-family="Virgil, Segoe UI Emoji" font-size="20px" fill="#1e1e1e" text-anchor="middle" style="white-space: pre;" direction="ltr" dominant-baseline="text-before-edge">Reference</text></g><g mask="url(#mask-8kT-3GSwzjiQ1cpgXKV6h)" stroke-linecap="round"><g transform="translate(472.6604486809133 511.85761043900584) rotate(0 121.38699964293028 27.756289894138718)"><path d="M-0.65 0.41 C15.71 9.64, 58.41 56, 99.14 56.46 C139.86 56.92, 219.81 11.96, 243.69 3.17 M1.2 -0.42 C17.84 9, 60.91 54.12, 101.28 54.84 C141.65 55.55, 219.87 12.27, 243.41 3.88" stroke="#1e1e1e" stroke-width="1" fill="none"></path></g><g transform="translate(472.6604486809133 511.85761043900584) rotate(0 121.38699964293028 27.756289894138718)"><path d="M225.4 21.23 C232.79 12.91, 240.54 9.64, 243.41 3.88 M225.4 21.23 C229.72 17.26, 232.32 13.81, 243.41 3.88" stroke="#1e1e1e" stroke-width="1" fill="none"></path></g><g transform="translate(472.6604486809133 511.85761043900584) rotate(0 121.38699964293028 27.756289894138718)"><path d="M218.47 5.6 C228.63 3.27, 239.03 5.96, 243.41 3.88 M218.47 5.6 C224.16 4.86, 228.18 4.62, 243.41 3.88" stroke="#1e1e1e" stroke-width="1" fill="none"></path></g></g><mask id="mask-8kT-3GSwzjiQ1cpgXKV6h"><rect x="0" y="0" fill="#fff" width="815.4344479667739" height="667.3701902272833"></rect><rect x="519.0059543323737" y="554.8701902272833" fill="#000" width="107.75990295410156" height="25" opacity="1"></rect></mask><g transform="translate(519.0059543323737 554.8701902272833) rotate(0 75.17309335254686 -14.992098359719876)"><text x="53.87995147705078" y="0" font-family="Virgil, Segoe UI Emoji" font-size="20px" fill="#1e1e1e" text-anchor="middle" style="white-space: pre;" direction="ltr" dominant-baseline="text-before-edge">Dependency</text></g><g stroke-linecap="round" transform="translate(935.2623978117019 213.16709563068798) rotate(0 140.6123898496545 43.18511389509513)"><path d="M21.59 0 C96.39 2.13, 174.5 1.44, 259.63 0 M21.59 0 C75.91 0.66, 130.47 1.42, 259.63 0 M259.63 0 C275.92 0.09, 279.64 5.3, 281.22 21.59 M259.63 0 C274.1 -0.3, 282.46 4.99, 281.22 21.59 M281.22 21.59 C282.9 30.33, 281.46 43.95, 281.22 64.78 M281.22 21.59 C280.49 36.41, 281.29 53.49, 281.22 64.78 M281.22 64.78 C281.34 78.38, 273.7 86.58, 259.63 86.37 M281.22 64.78 C282.75 78.11, 273.43 85.55, 259.63 86.37 M259.63 86.37 C197.28 86.36, 138.35 87.14, 21.59 86.37 M259.63 86.37 C203.95 85.08, 147.58 84.94, 21.59 86.37 M21.59 86.37 C6.86 87.01, 0.09 79.74, 0 64.78 M21.59 86.37 C7.48 87.31, -1.77 79.7, 0 64.78 M0 64.78 C0.44 50.9, -0.63 33.09, 0 21.59 M0 64.78 C0.09 56.2, 1.04 47.59, 0 21.59 M0 21.59 C0.65 6.54, 5.64 -0.23, 21.59 0 M0 21.59 C-2.14 5.21, 7.01 0.76, 21.59 0" stroke="#1e1e1e" stroke-width="2" fill="none"></path></g><g transform="translate(970.9948819606727 231.3522095257831) rotate(0 104.87990570068348 25)"><text x="104.8799057006836" y="0" font-family="Virgil, Segoe UI Emoji" font-size="20px" fill="#1e1e1e" text-anchor="middle" style="white-space: pre;" direction="ltr" dominant-baseline="text-before-edge">k8s-cluster (shared)</text><text x="104.8799057006836" y="25" font-family="Virgil, Segoe UI Emoji" font-size="20px" fill="#1e1e1e" text-anchor="middle" style="white-space: pre;" direction="ltr" dominant-baseline="text-before-edge">res_id = "k8-cluster"</text></g><g stroke-linecap="round" transform="translate(923.0364921062735 100.57682903956902) rotate(0 138.70822353089272 42.5)"><path d="M21.25 0 C96.15 -1.35, 168.4 -0.78, 256.17 0 M21.25 0 C78.8 -1.06, 138.02 0.21, 256.17 0 M256.17 0 C269.18 0.83, 277.53 5.58, 277.42 21.25 M256.17 0 C269.74 -0.9, 276.23 8.76, 277.42 21.25 M277.42 21.25 C275.83 35.27, 276.53 47.06, 277.42 63.75 M277.42 21.25 C276.81 34.49, 278.76 46.82, 277.42 63.75 M277.42 63.75 C276.46 78.93, 270.32 83.64, 256.17 85 M277.42 63.75 C276.38 80.17, 269.33 85.72, 256.17 85 M256.17 85 C164.71 86.88, 70.11 86.53, 21.25 85 M256.17 85 C188.69 82.42, 123.13 83.84, 21.25 85 M21.25 85 C7.27 86.04, -0.81 79.02, 0 63.75 M21.25 85 C5.65 87.09, -0.5 80.06, 0 63.75 M0 63.75 C0.91 53.79, -1.04 41.65, 0 21.25 M0 63.75 C0.29 50.03, 0.2 34.45, 0 21.25 M0 21.25 C0.88 7.9, 8.42 -1, 21.25 0 M0 21.25 C-2.15 5.99, 8.37 0.53, 21.25 0" stroke="#1e1e1e" stroke-width="2" fill="none"></path></g><g transform="translate(934.9548215331622 118.07682903956902) rotate(0 126.78989410400402 25)"><text x="126.7898941040039" y="0" font-family="Virgil, Segoe UI Emoji" font-size="20px" fill="#1e1e1e" text-anchor="middle" style="white-space: pre;" direction="ltr" dominant-baseline="text-before-edge">namespace.tf</text><text x="126.7898941040039" y="25" font-family="Virgil, Segoe UI Emoji" font-size="20px" fill="#1e1e1e" text-anchor="middle" style="white-space: pre;" direction="ltr" dominant-baseline="text-before-edge">res_id = "k8s-namespace"</text></g><g mask="url(#mask-TxLnD3z_7wIGrvYBHFmhz)" stroke-linecap="round"><g transform="translate(844.3926786198035 431.65212162034095) rotate(0 36.82406773707032 -143.67288689746147)"><path d="M-0.7 -0.75 C0.22 -36.01, -6.93 -162.77, 5.28 -210.58 C17.49 -258.4, 60.98 -274.75, 72.56 -287.62 M1.14 1.47 C2.47 -34.23, -4.64 -164.43, 7.65 -212.42 C19.94 -260.41, 64.17 -274.02, 74.89 -286.45" stroke="#1e1e1e" stroke-width="1" fill="none"></path></g><g transform="translate(844.3926786198035 431.65212162034095) rotate(0 36.82406773707032 -143.67288689746147)"><path d="M-9.33 -24.21 C-7.97 -18.68, -3.39 -12.82, -0.7 -0.75 M-9.33 -24.21 C-6.4 -16.76, -4.7 -10.58, -0.7 -0.75" stroke="#1e1e1e" stroke-width="1" fill="none"></path></g><g transform="translate(844.3926786198035 431.65212162034095) rotate(0 36.82406773707032 -143.67288689746147)"><path d="M7.77 -24.27 C4.34 -18.82, 4.13 -12.94, -0.7 -0.75 M7.77 -24.27 C5.96 -16.87, 2.92 -10.68, -0.7 -0.75" stroke="#1e1e1e" stroke-width="1" fill="none"></path></g></g><mask id="mask-TxLnD3z_7wIGrvYBHFmhz"><rect x="0" y="0" fill="#fff" width="1018.0408140939442" height="818.9978954152639"></rect><rect x="796.4535973974034" y="208.0212480332948" fill="#000" width="107.75990295410156" height="25" opacity="1"></rect></mask><g transform="translate(796.4535973974032 208.0212480332948) rotate(0 84.40829423772936 80.55584522960953)"><text x="53.87995147705078" y="0" font-family="Virgil, Segoe UI Emoji" font-size="20px" fill="#1e1e1e" text-anchor="middle" style="white-space: pre;" direction="ltr" dominant-baseline="text-before-edge">Dependency</text></g><g mask="url(#mask-Z-nz3KLYQTtCCfkF8Dsab)" stroke-linecap="round"><g transform="translate(881.0652371680706 432.9243455890655) rotate(0 26.45665857426343 -89.10254338705909)"><path d="M-0.39 -0.51 C-0.62 -20.27, -9.97 -89.65, -0.93 -119.11 C8.12 -148.57, 44.77 -167.27, 53.87 -177.29 M1.6 -1.83 C1.71 -21.43, -7.4 -88.55, 1.27 -118.11 C9.94 -147.66, 44.77 -169.06, 53.6 -179.15" stroke="#1e1e1e" stroke-width="1" fill="none"></path></g><g transform="translate(881.0652371680706 432.9243455890655) rotate(0 26.45665857426343 -89.10254338705909)"><path d="M-10.18 -23.52 C-7.87 -17.43, -5.43 -6.52, -0.39 -0.51 M-10.18 -23.52 C-7.13 -14.27, -3.53 -5.52, -0.39 -0.51" stroke="#1e1e1e" stroke-width="1" fill="none"></path></g><g transform="translate(881.0652371680706 432.9243455890655) rotate(0 26.45665857426343 -89.10254338705909)"><path d="M6.9 -24.43 C3.49 -18.09, 0.22 -6.87, -0.39 -0.51 M6.9 -24.43 C3.52 -14.98, 0.69 -5.89, -0.39 -0.51" stroke="#1e1e1e" stroke-width="1" fill="none"></path></g></g><mask id="mask-Z-nz3KLYQTtCCfkF8Dsab"><rect x="0" y="0" fill="#fff" width="1033.9785543165974" height="711.1294323631837"></rect><rect x="827.239966142741" y="302.3274358599065" fill="#000" width="107.75990295410156" height="25" opacity="1"></rect></mask><g transform="translate(827.2399661427412 302.3274358599065) rotate(0 78.32976208505943 40.766995580821)"><text x="53.87995147705078" y="0" font-family="Virgil, Segoe UI Emoji" font-size="20px" fill="#1e1e1e" text-anchor="middle" style="white-space: pre;" direction="ltr" dominant-baseline="text-before-edge">Dependency</text></g><g stroke-linecap="round"><g transform="translate(208.38377195747762 368.9559893061805) rotate(0 -32.383020348462196 29.234729206640623)"><path d="M-0.82 -0.69 C-11.76 9.15, -53.75 48.11, -64.52 58.11 M0.95 1.56 C-10.22 11.66, -54.09 50.15, -65.33 59.46" stroke="#1e1e1e" stroke-width="1" fill="none"></path></g><g transform="translate(208.38377195747762 368.9559893061805) rotate(0 -32.383020348462196 29.234729206640623)"><path d="M-53.05 37.68 C-59.2 46.56, -63.47 53.62, -65.33 59.46 M-53.05 37.68 C-56.66 44.89, -61.65 53.49, -65.33 59.46" stroke="#1e1e1e" stroke-width="1" fill="none"></path></g><g transform="translate(208.38377195747762 368.9559893061805) rotate(0 -32.383020348462196 29.234729206640623)"><path d="M-41.93 50.67 C-52.34 54.38, -60.97 56.34, -65.33 59.46 M-41.93 50.67 C-49.73 53.04, -58.83 56.85, -65.33 59.46" stroke="#1e1e1e" stroke-width="1" fill="none"></path></g></g><mask></mask><g stroke-linecap="round"><g transform="translate(148.85118633348907 134.8493458879684) rotate(0 -35.279860855018455 142.66089378079278)"><path d="M0.58 0.19 C-10.5 22.29, -53.68 85.31, -65.51 132.68 C-77.34 180.05, -69.76 259.06, -70.42 284.41 M-0.57 -0.76 C-11.35 21.52, -51.42 86.4, -63.17 134.06 C-74.93 181.73, -69.59 259.99, -71.11 285.25" stroke="#1e1e1e" stroke-width="1" fill="none"></path></g><g transform="translate(148.85118633348907 134.8493458879684) rotate(0 -35.279860855018455 142.66089378079278)"><path d="M-79.55 261.72 C-76 269.47, -73.59 279.89, -71.11 285.25 M-79.55 261.72 C-77.38 267.67, -74.82 272.79, -71.11 285.25" stroke="#1e1e1e" stroke-width="1" fill="none"></path></g><g transform="translate(148.85118633348907 134.8493458879684) rotate(0 -35.279860855018455 142.66089378079278)"><path d="M-62.45 261.8 C-65.43 269.6, -69.55 279.99, -71.11 285.25 M-62.45 261.8 C-64.12 267.66, -65.38 272.76, -71.11 285.25" stroke="#1e1e1e" stroke-width="1" fill="none"></path></g></g><mask></mask><g stroke-linecap="round" transform="translate(10.000000000000114 422.6476371626459) rotate(0 79.30595397870519 46.938766080897494)"><path d="M76.22 0.14 C87.93 -0.91, 102.37 0.82, 113.51 4.03 C124.66 7.25, 135.89 13.53, 143.09 19.41 C150.29 25.29, 154.8 32.48, 156.69 39.32 C158.59 46.16, 158.26 53.58, 154.47 60.47 C150.68 67.37, 142.86 75.54, 133.96 80.7 C125.07 85.86, 112.87 89.37, 101.09 91.45 C89.31 93.52, 75.32 94.53, 63.29 93.14 C51.25 91.76, 38.21 87.64, 28.9 83.12 C19.58 78.6, 12.09 72.77, 7.39 66.02 C2.69 59.28, -0.1 50.1, 0.68 42.66 C1.46 35.22, 5.67 27.45, 12.07 21.41 C18.47 15.36, 27.22 9.84, 39.1 6.39 C50.97 2.93, 74.79 1.43, 83.32 0.67 C91.86 -0.08, 90.37 1.07, 90.32 1.86 M60.61 0.76 C71.71 -1.33, 85.13 0.55, 97.1 2.31 C109.07 4.07, 122.88 6.82, 132.43 11.33 C141.97 15.84, 150.12 22.67, 154.37 29.36 C158.63 36.05, 159.41 44.11, 157.96 51.46 C156.5 58.81, 152.62 67.22, 145.63 73.43 C138.65 79.64, 126.92 85.5, 116.05 88.71 C105.17 91.92, 92.49 92.77, 80.38 92.7 C68.27 92.64, 54.2 91.35, 43.38 88.32 C32.56 85.29, 22.82 80.28, 15.47 74.52 C8.12 68.75, 0.99 60.92, -0.72 53.73 C-2.43 46.54, 0.57 38.08, 5.22 31.37 C9.87 24.66, 18.09 18.24, 27.21 13.46 C36.32 8.67, 54.47 4.36, 59.92 2.66 C65.37 0.96, 59.67 2.62, 59.89 3.26" stroke="#1e1e1e" stroke-width="1" fill="none"></path></g><g transform="translate(39.418224349668094 456.8956834472119) rotate(0 49.809951782226506 12.5)"><text x="49.80995178222656" y="0" font-family="Virgil, Segoe UI Emoji" font-size="20px" fill="#1e1e1e" text-anchor="middle" style="white-space: pre;" direction="ltr" dominant-baseline="text-before-edge">Terraform</text></g><g stroke-linecap="round" transform="translate(1030.9580130695472 432.4510974825607) rotate(0 79.30595397870525 46.938766080897494)"><path d="M98.89 1.36 C110.47 2.25, 123.13 6.45, 132.16 11.49 C141.2 16.53, 148.7 24.58, 153.1 31.61 C157.49 38.65, 160.04 46.58, 158.54 53.69 C157.05 60.8, 151.46 68.55, 144.15 74.28 C136.84 80.01, 125.64 84.73, 114.7 88.06 C103.77 91.39, 90.96 94.31, 78.55 94.27 C66.14 94.22, 51.05 91.37, 40.24 87.79 C29.44 84.21, 20.34 78.97, 13.73 72.79 C7.13 66.62, 1.93 58.05, 0.61 50.74 C-0.71 43.43, 1.39 35.43, 5.81 28.94 C10.22 22.45, 17.64 16.45, 27.08 11.78 C36.51 7.11, 48.39 2.02, 62.43 0.9 C76.47 -0.21, 101.53 3.81, 111.3 5.09 C121.06 6.38, 121.56 8.17, 121.03 8.61 M87.03 -0.36 C98.68 -0.36, 112.28 4.87, 122.5 9.06 C132.71 13.24, 142.48 18.8, 148.3 24.75 C154.13 30.7, 156.91 37.72, 157.43 44.75 C157.94 51.79, 156.82 60.34, 151.38 66.95 C145.93 73.56, 135.09 79.85, 124.75 84.4 C114.41 88.96, 101.15 93.36, 89.31 94.28 C77.48 95.21, 64.91 92.64, 53.73 89.97 C42.55 87.29, 30.57 83.5, 22.22 78.23 C13.87 72.97, 7.12 65.53, 3.62 58.38 C0.12 51.23, -1.48 42.42, 1.21 35.31 C3.89 28.21, 11.95 21.17, 19.76 15.75 C27.56 10.33, 37.04 5.23, 48.01 2.77 C58.99 0.31, 78.9 1.11, 85.59 1 C92.28 0.9, 88.12 1.57, 88.14 2.12" stroke="#1e1e1e" stroke-width="1" fill="none"></path></g><g transform="translate(1060.3762374192152 466.69914376712677) rotate(0 49.80995178222656 12.5)"><text x="49.80995178222656" y="0" font-family="Virgil, Segoe UI Emoji" font-size="20px" fill="#1e1e1e" text-anchor="middle" style="white-space: pre;" direction="ltr" dominant-baseline="text-before-edge">Terraform</text></g><g stroke-linecap="round"><g transform="translate(954.1384113955769 477.51142922197687) rotate(0 37.238995870719464 -0.20103107250452013)"><path d="M-1.11 0.16 C11.31 0.31, 62.02 -0.07, 74.6 -0.08 M0.51 -0.8 C12.78 -0.95, 61.54 -1.84, 73.71 -2.04" stroke="#1e1e1e" stroke-width="1" fill="none"></path></g><g transform="translate(954.1384113955769 477.51142922197687) rotate(0 37.238995870719464 -0.20103107250452013)"><path d="M50.37 6.92 C57.85 4.6, 65.25 1.49, 73.71 -2.04 M50.37 6.92 C58 3.38, 65.55 0.08, 73.71 -2.04" stroke="#1e1e1e" stroke-width="1" fill="none"></path></g><g transform="translate(954.1384113955769 477.51142922197687) rotate(0 37.238995870719464 -0.20103107250452013)"><path d="M50.08 -10.18 C57.51 -7.27, 65 -5.16, 73.71 -2.04 M50.08 -10.18 C57.77 -7.88, 65.42 -5.35, 73.71 -2.04" stroke="#1e1e1e" stroke-width="1" fill="none"></path></g></g><mask></mask><g stroke-linecap="round" transform="translate(103.09186080676841 246.02656160600236) rotate(0 193.12813898213005 69.68701922151331)"><path d="M32 0 C143.48 0.77, 255.92 0.87, 354.26 0 M354.26 0 C374.1 -1.89, 386.78 10.28, 386.26 32 M386.26 32 C386.15 60.93, 387.22 88.31, 386.26 107.37 M386.26 107.37 C385.68 128.52, 376.73 140.56, 354.26 139.37 M354.26 139.37 C247.05 141.61, 139.58 142.29, 32 139.37 M32 139.37 C10.6 139.31, 0.84 129.57, 0 107.37 M0 107.37 C0.9 85.95, 0.64 62.18, 0 32 M0 32 C-1.08 9.83, 9.81 1.88, 32 0" stroke="#1e1e1e" stroke-width="1.5" fill="none" stroke-dasharray="8 9"></path></g><g transform="translate(124.12691420667534 255.36657732288404) rotate(0 66.31993865966797 12.5)"><text x="0" y="0" font-family="Virgil, Segoe UI Emoji" font-size="20px" fill="#1e1e1e" text-anchor="start" style="white-space: pre;" direction="ltr" dominant-baseline="text-before-edge">Resources (n)</text></g><g stroke-linecap="round" transform="translate(31.69322128437807 683.6648785723955) rotate(0 95.19455802363927 58.126632932308894)"><path d="M132.83 4.37 C144.84 6.29, 156.75 12.21, 165.45 17.97 C174.15 23.72, 180.81 31.22, 185.03 38.9 C189.24 46.57, 191.81 56.12, 190.76 64.02 C189.7 71.91, 185.02 79.36, 178.71 86.26 C172.39 93.16, 163.36 100.65, 152.87 105.42 C142.39 110.18, 128.49 113.4, 115.77 114.86 C103.05 116.32, 89.03 115.73, 76.57 114.17 C64.1 112.61, 51.58 109.92, 40.98 105.5 C30.39 101.08, 19.71 94.26, 13.02 87.65 C6.32 81.03, 2.18 73.56, 0.8 65.82 C-0.58 58.07, 0.87 48.77, 4.75 41.16 C8.63 33.56, 15.56 26.03, 24.09 20.17 C32.63 14.3, 44.17 9.36, 55.96 5.97 C67.75 2.59, 80.79 -0.34, 94.86 -0.17 C108.92 0.01, 131.81 5.12, 140.36 7.03 C148.9 8.94, 146.96 10.37, 146.14 11.28" stroke="#1e1e1e" stroke-width="1.5" fill="none" stroke-dasharray="8 9"></path></g><g transform="translate(66.54510879451607 716.6897751907272) rotate(0 60.529953002929744 25)"><text x="60.52995300292969" y="0" font-family="Virgil, Segoe UI Emoji" font-size="20px" fill="#1e1e1e" text-anchor="middle" style="white-space: pre;" direction="ltr" dominant-baseline="text-before-edge">Score</text><text x="60.52995300292969" y="25" font-family="Virgil, Segoe UI Emoji" font-size="20px" fill="#1e1e1e" text-anchor="middle" style="white-space: pre;" direction="ltr" dominant-baseline="text-before-edge">backend.yaml</text></g></svg>